<?xml version="1.0" encoding="utf-8"?>
<!-- Generator: Adobe Illustrator 27.5.0, SVG Export Plug-In . SVG Version: 6.00 Build 0)  -->
<svg version="1.1" xmlns="http://www.w3.org/2000/svg" xmlns:xlink="http://www.w3.org/1999/xlink" x="0px" y="0px"
	 viewBox="0 0 500 500" style="enable-background:new 0 0 500 500;" xml:space="preserve">
<g id="BACKGROUND">
</g>
<g id="OBJECTS">
	<g>
		
			<ellipse transform="matrix(0.7071 -0.7071 0.7071 0.7071 -60.6445 142.3388)" style="fill:#1D2C3A;" cx="141.496" cy="144.374" rx="91.905" ry="91.905"/>
		<g>
			<defs>
				
					<ellipse id="SVGID_9_" transform="matrix(0.7071 -0.7071 0.7071 0.7071 -60.6445 142.3388)" cx="141.496" cy="144.374" rx="91.905" ry="91.905"/>
			</defs>
			<clipPath id="SVGID_00000096769457285608108490000003933910070667218333_">
				<use xlink:href="#SVGID_9_"  style="overflow:visible;"/>
			</clipPath>
			<g style="clip-path:url(#SVGID_00000096769457285608108490000003933910070667218333_);">
				<g>
					<path style="fill:#F26D5F;" d="M163.075,167.887c1.654,0.442,18.456,4.724,23.889,10.629
						c5.433,5.905,2.598,38.266,3.071,49.368c0.472,11.102,0.326,21.259,0.326,21.259h-24.613c0,0-1.763-31.416-2.674-37.794
						c-0.911-6.378,0-42.282,0-42.282"/>
					<g>
						<path style="fill:#F26D5F;" d="M113.658,167.887c0,0-15.118,2.834-19.842,8.504c-4.724,5.669-8.031,14.645-9.449,23.385
							c-1.417,8.74-6.614,48.187-6.614,48.187h21.231l11.13-27.401L113.658,167.887z"/>
					</g>
					<g>
						<path style="fill:#F26D5F;" d="M162.673,168.342c0,0-8.214,23.379-26.426,23.379c-18.213,0-19.915-25.033-19.915-25.033
							s8.083-4.023,9.487-9.213c0.559-2.083,0.857-5.309,1.024-8.428c0.143-2.773,0.167-5.464,0.167-7.19
							c0-1.155-0.012-1.869-0.012-1.869l14.987,1.119l7.071,0.536c0,0.393-0.488,3.904-0.655,7.725
							c-0.131,3.071-0.06,6.345,0.655,8.345C150.662,162.2,162.673,168.342,162.673,168.342z"/>
					</g>
					<g>
						<path style="fill:#D34855;" d="M149.055,141.642c0,0.393-0.488,3.904-0.655,7.725c-3.059,2.012-7.309,3.964-11.558,3.214
							c-4.809-0.845-8.118-2.416-9.999-3.535c0.143-2.773,0.167-5.464,0.167-7.19l14.975-0.75L149.055,141.642z"/>
					</g>
					<path style="fill:#FFA859;" d="M179.908,205.684c-0.476,7.654-3.738,14.939-7.321,21.7c-4.261,8.035-5.202,22.676-5.202,22.676
						H110.26c0,0-0.94-14.641-5.19-22.676c-3.619-6.797-6.868-14.106-7.333-21.772c0.071-1.286,0.214-2.607,0.44-3.964
						c2.595-15.356,9.916-20.796,11.332-25.748c0.512-1.798,0.714-3.286,0.857-4.5c0.25-2.131,0.31-3.404,1.512-4.012
						c0.524-0.262,1.238-0.655,1.976-1.083c2.059-1.178,4.678-0.262,5.559,1.94c2.631,6.606,8.785,18.617,19.415,20.593
						c10.63-1.976,16.784-13.987,19.403-20.593c0.881-2.202,3.5-3.119,5.559-1.94c0.738,0.428,1.452,0.821,1.976,1.083
						c1.214,0.607,1.262,1.881,1.512,4.023c0.131,1.214,0.345,2.702,0.857,4.488c1.416,4.952,8.737,10.392,11.332,25.748
						C179.694,203.029,179.849,204.374,179.908,205.684z"/>
					<g>
						<g>
							<g>
								<g>
									<path style="fill:#ED7D4A;" d="M165.044,229.585c-0.042,0.144-1.002-0.078-4.011-0.726
										c-3.008-0.601-8.1-1.761-16.502-1.991c-8.405-0.113-13.539,0.839-16.569,1.317c-3.034,0.525-4.002,0.708-4.038,0.563
										c-0.027-0.102,0.883-0.51,3.911-1.204c3.022-0.646,8.208-1.715,16.715-1.6c8.504,0.232,13.643,1.51,16.636,2.279
										C164.182,229.04,165.074,229.484,165.044,229.585z"/>
								</g>
							</g>
						</g>
					</g>
					<g>
						<g>
							<g>
								<g>
									<path style="fill:#ED7D4A;" d="M137.727,217.565c0.007-0.124,0.466-0.221,1.9-0.195c1.432,0.034,3.846,0.17,7.718,0.758
										c3.869,0.607,6.212,1.204,7.587,1.604c1.375,0.407,1.783,0.638,1.753,0.759c-0.032,0.127-0.497,0.121-1.901-0.122
										c-1.405-0.234-3.747-0.725-7.58-1.327c-3.836-0.583-6.217-0.821-7.628-1.021
										C138.164,217.83,137.719,217.696,137.727,217.565z"/>
								</g>
							</g>
						</g>
					</g>
					<g>
						<g>
							<g>
								<g>
									<path style="fill:#ED7D4A;" d="M113.298,197.016c0.074-0.135,0.333,0.015,1.044-0.018c0.236-0.018,0.253-0.054,0.28-0.078
										c0.01-0.015,0.029-0.028,0.016-0.042l-0.066-0.035c-0.021-0.015,0.013,0.019-0.052-0.034
										c-0.073-0.061-0.149-0.124-0.227-0.189c-0.158-0.127-0.326-0.26-0.503-0.402c-0.356-0.28-0.759-0.578-1.212-0.898
										c-1.831-1.257-3.075-1.844-3.787-2.251c-0.72-0.394-0.933-0.579-0.887-0.705c0.042-0.115,0.334-0.147,1.144,0.103
										c0.799,0.263,2.148,0.782,4.059,2.094c0.473,0.333,0.89,0.65,1.253,0.952c0.179,0.154,0.349,0.299,0.509,0.437
										c0.211,0.195,0.409,0.379,0.596,0.553c0.189,0.225,0.367,0.436,0.534,0.633c0.085,0.056-0.028,0.078-0.079,0.11
										l-0.174,0.087c-0.11,0.052-0.215,0.103-0.318,0.152c-0.431,0.184-0.933,0.208-1.105,0.17
										c-0.479-0.06-0.754-0.235-0.896-0.361C113.285,197.161,113.266,197.067,113.298,197.016z"/>
								</g>
							</g>
						</g>
					</g>
					<g>
						<g>
							<g>
								<g>
									<path style="fill:#ED7D4A;" d="M160.656,192.265c-0.175-0.186,0.189-0.813,2.368-2.86c2.179-2.048,2.826-2.372,3.001-2.186
										c0.175,0.186-0.189,0.813-2.368,2.86S160.831,192.451,160.656,192.265z"/>
								</g>
							</g>
						</g>
					</g>
					<g>
						<g>
							<g>
								<g>
									<path style="fill:#ED7D4A;" d="M159.124,188.062c-0.243-0.08-0.05-1.324,1.627-6.4c1.677-5.076,2.263-6.19,2.506-6.11
										c0.243,0.08,0.05,1.324-1.627,6.4C159.952,187.028,159.366,188.142,159.124,188.062z"/>
								</g>
							</g>
						</g>
					</g>
					<g>
						<g>
							<g>
								<g>
									<path style="fill:#ED7D4A;" d="M128.581,189.785c-0.209,0.147-1.303-1.054-5.28-6.735
										c-3.977-5.681-4.731-7.119-4.522-7.265c0.209-0.146,1.303,1.054,5.28,6.735C128.037,188.2,128.791,189.638,128.581,189.785
										z"/>
								</g>
							</g>
						</g>
					</g>
					<g>
						<g>
							<g>
								<g>
									<path style="fill:#ED7D4A;" d="M154.076,247.298c-0.022,0.112-1.008,0.067-4.028-0.554
										c-3.007-0.648-8.097-1.799-15.976-4.805c-7.852-3.075-12.393-5.647-15.054-7.19c-2.652-1.572-3.412-2.202-3.354-2.3
										c0.072-0.122,0.951,0.31,3.67,1.727c2.729,1.389,7.279,3.848,15.071,6.899c7.818,2.982,12.84,4.223,15.793,5.031
										C153.164,246.887,154.104,247.159,154.076,247.298z"/>
								</g>
							</g>
						</g>
					</g>
				</g>
				<g>
					<path style="fill:#352335;" d="M202.55,160.843c0,0-3,1.345-6.368,0.333c-3.357-1-3.416-6.44-6.975-6.726
						c-3.559-0.274-9.654,5.25-15.153,4.119c-5.5-1.119-1.833-5.809-5.845-6.547c-4.011-0.726-3.369,1.369-12.368,3.976
						c-2.428,0.702-4.809,1.012-6.976,1.083c-0.536-2.012-0.583-4.952-0.464-7.714c0.167-3.821,0.655-7.333,0.655-7.725
						l-7.071-0.536l-12.32-0.917l-16.153-27.914c0,0-9.606-9.344-6.892-22.736c2.726-13.392,16.939-12.963,16.939-12.963
						s0.5-8.309,14.534-11.416c14.023-3.119,25.152,1.5,33.616,9.332c8.452,7.821,7.892,14.951,5.773,24.045
						c-2.119,9.106-2.988,16.248,2.916,19.963c5.904,3.702,10.642,3.69,11.606,8.606c0.976,4.916-3,5.833-3.869,11.559
						c-0.881,5.726,1.964,5.809,6.845,8.618c4.88,2.821,5.071,2.095,4.392,7.106C198.693,159.39,202.55,160.843,202.55,160.843z"/>
					<g>
						<path style="fill:#F26D5F;" d="M155.362,140.884c-12.883,11.945-29.275,10.385-36.39-3.749
							c-3.698-7.346-5.2-19.75-5.94-28.281c11.002-5.389,14.557-18.775,14.557-18.775s2.755,2.929,15.135,4.404
							c12.38,1.463,15.389-1.57,17.856-0.247c0.638,0.336,1.525,0.872,2.486,1.465C164.307,106.482,165.874,131.138,155.362,140.884
							z"/>
					</g>
					<g>
						<circle style="fill:#F26D5F;" cx="113.658" cy="114.279" r="5.677"/>
					</g>
					<g>
						<circle style="fill:#D64C41;" cx="113.658" cy="114.279" r="2.674"/>
					</g>
					<g>
						<circle style="fill:#F26D5F;" cx="164.288" cy="114.279" r="5.677"/>
					</g>
					<g>
						<circle style="fill:#D64C41;" cx="164.288" cy="114.279" r="2.674"/>
					</g>
					<path style="fill:#231423;" d="M126.88,114.279c0,1.821-0.859,3.298-1.919,3.298c-1.06,0-1.919-1.477-1.919-3.298
						c0-1.821,0.859-3.298,1.919-3.298C126.02,110.981,126.88,112.458,126.88,114.279z"/>
					<path style="fill:#231423;" d="M152.933,114.279c0,1.821-0.859,3.298-1.919,3.298c-1.06,0-1.919-1.477-1.919-3.298
						c0-1.821,0.859-3.298,1.919-3.298C152.073,110.981,152.933,112.458,152.933,114.279z"/>
					<g>
						<path style="fill:#D64C41;" d="M139.182,124.206c-0.016,0.238-0.303,0.518-1.298,0.455c-0.489-0.052-1.188-0.193-1.973-0.784
							c-0.384-0.299-0.769-0.708-1.057-1.28c-0.281-0.566-0.48-1.319-0.29-2.17c0.192-0.814,0.659-1.455,1.257-1.852
							c0.292-0.197,0.642-0.329,0.94-0.388l0.164-0.028l0.011,0.005l0.027,0.007c0.059-0.002,0.143-0.015,0.081-0.376
							c-0.072-0.326-0.166-0.71-0.143-1.009c0.047-0.655,0.404-0.782,0.55-0.692c0.182,0.087,0.269,0.254,0.468,0.494
							c0.101,0.143,0.241,0.309,0.462,0.697c0.113,0.248,0.225,0.438,0.258,0.937c0.022,0.438-0.124,0.961-0.558,1.305
							c-0.14,0.11-0.305,0.201-0.49,0.264c-0.092,0.033-0.189,0.059-0.288,0.082l-0.148,0.039c-0.121,0.04-0.202,0.081-0.307,0.159
							c-0.199,0.145-0.401,0.428-0.479,0.767c-0.149,0.66,0.253,1.356,0.651,1.743c0.408,0.405,0.86,0.636,1.2,0.815
							C138.92,123.736,139.204,123.939,139.182,124.206z"/>
					</g>
					<g>
						<path style="fill:#99263D;" d="M147.752,134.341c-0.437,0.709-1.042,1.279-1.739,1.761c-0.472,0.33-0.983,0.616-1.497,0.878
							c-2.925,1.475-6.38,2.258-9.514,1.314c-0.837-0.258-1.626-0.652-2.342-1.16c-1.996-1.431-3.341-3.722-3.119-6.121
							c0.025-0.253,0.064-0.472,0.142-0.67c0.649-1.924,3.313-0.758,4.986-0.636c2.659,0.187,5.33,0.121,7.979-0.193
							c1.749-0.22,3.809-0.433,4.982,0.882C148.574,131.445,148.49,133.138,147.752,134.341z"/>
					</g>
					<path style="fill:#FF8E85;" d="M146.012,136.102c-0.472,0.33-0.983,0.616-1.497,0.878c-2.925,1.475-6.38,2.258-9.514,1.314
						c-0.837-0.258-1.626-0.652-2.342-1.16c0.679-2.369,4.075-3.792,6.596-3.939C141.8,133.046,144.446,134.142,146.012,136.102z"/>
					<path style="fill:#FFFFFF;" d="M147.629,130.396c-0.036,0.135-0.096,0.26-0.157,0.373c-0.555,0.983-1.807,1.277-2.93,1.416
						c-2.873,0.347-5.782,0.303-8.689,0.27c-1.831-0.023-5.132-0.307-6.17-2.112c0.649-1.924,3.313-0.758,4.986-0.636
						c2.659,0.187,5.33,0.121,7.979-0.193C144.396,129.294,146.457,129.081,147.629,130.396z"/>
					<path style="fill:#352335;" d="M130.118,104.782c0.583,3.016-3.783-0.219-5.263,0c-1.481,0.219-3.345,1.209-4.552,1.318
						c-1.207,0.108-2.786-0.885-1.074-2.482c1.713-1.596,4.145-1.797,6.887-1.578C128.858,102.259,129.842,103.356,130.118,104.782z
						"/>
					<path style="fill:#352335;" d="M144.477,104.782c-0.583,3.016,3.783-0.219,5.263,0c1.481,0.219,3.345,1.209,4.552,1.318
						c1.206,0.108,2.786-0.885,1.074-2.482c-1.712-1.596-4.145-1.797-6.887-1.578C145.736,102.259,144.752,103.356,144.477,104.782z
						"/>
					<g>
						<g>
							<g>
								<g>
									<path style="fill:#2B0D2D;" d="M137.316,72.864c0.017,0.145-0.283,0.247-1.166,0.54c-0.858,0.313-2.404,0.79-4.294,2.457
										c-1.839,1.709-2.45,3.255-2.784,4.035c-0.258,0.806,0,1.022-0.126,1.128c-0.042,0.039-0.156,0.034-0.311-0.152
										c-0.156-0.181-0.285-0.587-0.202-1.12c0.087-0.541,0.324-1.151,0.728-1.948c0.417-0.782,1.063-1.701,2.071-2.627
										c1.01-0.926,1.994-1.465,2.802-1.822c0.812-0.358,1.472-0.506,1.961-0.587C136.981,72.623,137.306,72.755,137.316,72.864z"
										/>
								</g>
							</g>
						</g>
					</g>
					<g>
						<g>
							<g>
								<g>
									<path style="fill:#2B0D2D;" d="M147.607,88.453c0.022,0.111-0.382,0.342-1.761,0.586c-1.369,0.214-3.774,0.516-7.556-0.202
										c-3.767-0.791-5.871-1.994-7.053-2.718c-1.18-0.755-1.464-1.124-1.401-1.218c0.077-0.119,0.489,0.055,1.717,0.645
										c1.232,0.56,3.292,1.622,6.918,2.383c3.64,0.691,5.951,0.503,7.303,0.459C147.134,88.316,147.581,88.314,147.607,88.453z"
										/>
								</g>
							</g>
						</g>
					</g>
					<g>
						<g>
							<g>
								<g>
									<path style="fill:#2B0D2D;" d="M142.354,86.168c0.007,0.124-0.132,0.256-0.607,0.345c-0.472,0.082-1.292,0.138-2.582-0.109
										c-1.287-0.264-2.023-0.629-2.428-0.885c-0.405-0.263-0.483-0.438-0.429-0.55c0.057-0.118,0.236-0.152,0.683-0.053
										c0.449,0.093,1.162,0.336,2.354,0.58c1.196,0.229,1.947,0.277,2.398,0.363C142.194,85.938,142.347,86.038,142.354,86.168z"
										/>
								</g>
							</g>
						</g>
					</g>
					<g>
						<g>
							<g>
								<g>
									<path style="fill:#2B0D2D;" d="M162.036,76.588c0.066-0.106,0.558,0.049,1.95,0.829c0.694,0.394,1.614,0.946,2.777,1.772
										c1.149,0.838,2.571,1.948,3.995,3.667c1.409,1.745,2.154,3.44,2.54,4.844c0.374,1.414,0.404,2.54,0.326,3.358
										c-0.198,1.642-0.577,2.076-0.663,2.044c-0.155-0.041-0.011-0.542,0.009-2.071c-0.009-0.763-0.102-1.794-0.492-3.093
										c-0.402-1.29-1.119-2.86-2.438-4.495c-1.346-1.625-2.695-2.715-3.787-3.568c-1.106-0.842-1.977-1.444-2.62-1.905
										C162.343,77.054,161.968,76.699,162.036,76.588z"/>
								</g>
							</g>
						</g>
					</g>
					<g>
						<g>
							<g>
								<g>
									<path style="fill:#2B0D2D;" d="M163.817,83.16c0.132-0.181,0.911,0,3.196,2.125c2.225,2.188,2.441,2.957,2.266,3.097
										c-0.22,0.184-0.746-0.306-2.906-2.428C164.157,83.892,163.643,83.388,163.817,83.16z"/>
								</g>
							</g>
						</g>
					</g>
					<g>
						<g>
							<g>
								<g>
									<path style="fill:#2B0D2D;" d="M152.337,90.914c-0.016-0.125,0.462-0.31,2.02-0.583c0.78-0.132,1.833-0.287,3.243-0.393
										c1.408-0.089,3.19-0.151,5.372,0.207c2.185,0.384,3.857,1.121,5.085,1.878c1.225,0.771,2.019,1.551,2.53,2.183
										c1,1.296,1.051,1.858,0.965,1.9c-0.136,0.08-0.398-0.363-1.451-1.462c-0.538-0.537-1.316-1.209-2.482-1.89
										c-1.169-0.667-2.744-1.335-4.803-1.697c-2.071-0.34-3.792-0.309-5.17-0.268c-1.38,0.057-2.428,0.142-3.213,0.191
										C152.864,91.086,152.353,91.043,152.337,90.914z"/>
								</g>
							</g>
						</g>
					</g>
					<g>
						<g>
							<g>
								<g>
									<path style="fill:#2B0D2D;" d="M158.175,80.844c-0.039,0.125-0.366,0.136-1.321-0.05c-0.956-0.178-2.535-0.573-5.134-1.032
										c-2.602-0.442-4.222-0.603-5.182-0.756c-0.961-0.147-1.266-0.267-1.26-0.398c0.005-0.124,0.319-0.236,1.304-0.255
										c0.983-0.012,2.645,0.047,5.296,0.497c2.648,0.468,4.233,0.972,5.155,1.315C157.954,80.515,158.212,80.726,158.175,80.844z
										"/>
								</g>
							</g>
						</g>
					</g>
					<g>
						<g>
							<g>
								<g>
									<path style="fill:#2B0D2D;" d="M150.827,69.714c0.038-0.225,1.123-0.344,5.491,0.717c4.35,1.134,5.248,1.754,5.176,1.97
										c-0.087,0.269-1.106,0.048-5.402-1.072C151.778,70.28,150.777,69.992,150.827,69.714z"/>
								</g>
							</g>
						</g>
					</g>
					<g>
						<g>
							<g>
								<g>
									<path style="fill:#2B0D2D;" d="M118.587,97.669c-0.12-0.011-0.227-0.363-0.135-1.453c0.12-1.074,0.388-2.948,1.724-5.641
										c0.67-1.328,1.384-2.37,2.161-3.044c0.771-0.684,1.538-0.972,2.106-1.079c1.172-0.172,1.512,0.163,1.481,0.248
										c-0.021,0.157-0.382,0.088-1.316,0.386c-0.46,0.166-1.064,0.457-1.692,1.072c-0.635,0.608-1.267,1.556-1.914,2.837
										c-1.272,2.563-1.626,4.32-1.904,5.332C118.846,97.352,118.721,97.682,118.587,97.669z"/>
								</g>
							</g>
						</g>
					</g>
					<g>
						<g>
							<g>
								<g>
									<path style="fill:#2B0D2D;" d="M117.623,102.688c-0.083-0.112,0.121-0.371,0.802-1.075c0.66-0.714,1.866-1.862,3.187-4.165
										c1.272-2.331,1.62-3.958,1.883-4.895c0.244-0.948,0.358-1.258,0.497-1.246c0.116,0.009,0.233,0.339,0.148,1.358
										c-0.105,1.003-0.372,2.765-1.72,5.235c-1.4,2.441-2.762,3.589-3.562,4.204C118.034,102.71,117.692,102.781,117.623,102.688
										z"/>
								</g>
							</g>
						</g>
					</g>
					<g>
						<g>
							<g>
								<g>
									<path style="fill:#2B0D2D;" d="M116.956,85.167c-0.067-0.104-0.036-0.275,0.272-0.537c0.307-0.253,0.903-0.626,1.989-0.824
										c1.089-0.176,1.776-0.023,2.15,0.112c0.378,0.145,0.465,0.296,0.436,0.416c-0.03,0.128-0.171,0.204-0.535,0.231
										c-0.362,0.035-0.954,0.001-1.895,0.153c-0.937,0.171-1.483,0.401-1.837,0.489
										C117.185,85.302,117.027,85.278,116.956,85.167z"/>
								</g>
							</g>
						</g>
					</g>
					<g>
						<g>
							<g>
								<g>
									<path style="fill:#2B0D2D;" d="M114.284,84.598c-0.099-0.068-0.094-0.314,0.266-0.883c0.366-0.551,1.091-1.482,2.693-2.41
										c1.622-0.892,2.793-1.033,3.454-1.061c0.673-0.015,0.886,0.109,0.893,0.228c0.009,0.135-0.191,0.244-0.793,0.419
										c-0.594,0.187-1.625,0.41-3.1,1.221c-1.456,0.844-2.179,1.612-2.646,2.024C114.591,84.56,114.395,84.675,114.284,84.598z"
										/>
								</g>
							</g>
						</g>
					</g>
					<g>
						<g>
							<g>
								<g>
									<path style="fill:#2B0D2D;" d="M112.049,91.736c0.128,0.064,0.041,0.405-0.256,1.408c-0.267,0.998-0.825,2.71-0.67,5.549
										c0.23,2.833,1.013,4.455,1.412,5.408c0.429,0.954,0.562,1.28,0.444,1.361c-0.091,0.065-0.415-0.127-1.02-1.05
										c-0.57-0.918-1.515-2.626-1.76-5.656c-0.166-3.036,0.541-4.856,0.981-5.842C111.654,91.918,111.95,91.684,112.049,91.736z"
										/>
								</g>
							</g>
						</g>
					</g>
					<g>
						<g>
							<g>
								<g>
									<path style="fill:#2B0D2D;" d="M115.446,99.985c0.262,0.092,0.292,0.383,0.149,1.443c-0.085,1.066-0.176,1.344-0.451,1.379
										c-0.227,0.036-0.566-0.224-0.469-1.477C114.845,100.084,115.232,99.902,115.446,99.985z"/>
								</g>
							</g>
						</g>
					</g>
					<g>
						<g>
							<g>
								<g>
									<path style="fill:#2B0D2D;" d="M188.507,134.325c-0.069-0.015-0.067-0.242-0.049-0.797
										c0.012-0.552,0.027-1.455-0.304-2.751c-0.346-1.26-1.089-3.027-2.954-4.45c-0.932-0.703-2.162-1.242-3.611-1.736
										c-1.436-0.518-3.143-0.964-4.837-2.034c-1.697-1.08-2.786-2.598-3.503-4.02c-0.713-1.44-1.085-2.831-1.279-4.08
										c-0.366-2.504-0.182-4.401-0.052-5.788c0.326-2.775,0.593-3.621,0.706-3.609c0.141,0.014,0.102,0.906-0.054,3.659
										c-0.047,1.371-0.153,3.229,0.241,5.599c0.205,1.176,0.574,2.48,1.246,3.81c0.676,1.314,1.675,2.685,3.195,3.65
										c1.522,0.969,3.178,1.423,4.638,1.958c1.469,0.515,2.798,1.108,3.824,1.911c2.056,1.637,2.783,3.602,3.076,4.98
										c0.272,1.419,0.148,2.38,0.024,2.944C188.684,134.139,188.562,134.339,188.507,134.325z"/>
								</g>
							</g>
						</g>
					</g>
					<g>
						<g>
							<g>
								<g>
									<path style="fill:#2B0D2D;" d="M171.607,125.06c0.122-0.1,0.531,0.407,2.121,1.628c0.797,0.614,1.932,1.346,3.423,2.408
										c0.741,0.54,1.563,1.18,2.384,2.029c0.807,0.848,1.643,1.932,2.097,3.363c0.445,1.43,0.418,2.771,0.351,3.92
										c-0.077,1.156-0.206,2.16-0.267,3.048c-0.129,1.761,0.07,3.083,0.37,4.002c0.303,0.922,0.682,1.45,0.918,1.774
										c0.242,0.322,0.34,0.463,0.296,0.517c-0.035,0.045-0.209,0.002-0.555-0.267c-0.337-0.269-0.852-0.801-1.272-1.795
										c-0.418-0.988-0.697-2.424-0.609-4.28c0.04-0.92,0.152-1.935,0.213-3.05c0.055-1.111,0.062-2.344-0.328-3.588
										c-0.392-1.241-1.129-2.221-1.872-3.018c-0.753-0.797-1.529-1.426-2.236-1.969c-1.43-1.076-2.56-1.887-3.328-2.586
										C171.768,125.791,171.526,125.114,171.607,125.06z"/>
								</g>
							</g>
						</g>
					</g>
					<g>
						<g>
							<g>
								<g>
									<path style="fill:#2B0D2D;" d="M167.006,151.7c-0.043,0.047-0.188-0.01-0.502-0.252c-0.288-0.26-0.749-0.728-1.164-1.611
										c-0.405-0.878-0.743-2.181-0.623-3.886c0.089-1.717,0.803-3.751,1.913-6.017c1.115-2.271,1.961-4.074,2.307-5.623
										c0.371-1.542,0.363-2.746,0.249-3.617c-0.28-1.742-0.687-2.232-0.53-2.317c0.05-0.053,0.686,0.314,1.174,2.202
										c0.212,0.938,0.289,2.261-0.061,3.918c-0.324,1.671-1.203,3.591-2.305,5.836c-1.1,2.251-1.771,4.12-1.898,5.688
										c-0.154,1.566,0.089,2.749,0.379,3.568C166.591,151.219,167.142,151.575,167.006,151.7z"/>
								</g>
							</g>
						</g>
					</g>
					<g>
						<g>
							<g>
								<g>
									<path style="fill:#2B0D2D;" d="M161,142.011c0.271,0.05,0.317,0.521,0.17,2.439c-0.092,1.921-0.197,2.383-0.472,2.399
										c-0.234,0.017-0.548-0.438-0.452-2.456C160.402,142.378,160.77,141.966,161,142.011z"/>
								</g>
							</g>
						</g>
					</g>
					<g>
						<g>
							<g>
								<g>
									<path style="fill:#2B0D2D;" d="M175.54,139.686c0.136,0.073-0.046,0.408-0.194,1.463c-0.061,0.529-0.078,1.253,0.111,2.193
										c0.179,0.942,0.618,2.066,1.286,3.461c0.669,1.393,1.194,2.592,1.428,3.625c0.244,1.027,0.251,1.851,0.169,2.447
										c-0.194,1.202-0.546,1.483-0.636,1.44c-0.143-0.051-0.028-0.409-0.017-1.482c-0.006-0.537-0.074-1.26-0.341-2.19
										c-0.257-0.933-0.764-2.038-1.44-3.446c-0.675-1.406-1.139-2.651-1.289-3.708c-0.161-1.053-0.071-1.881,0.087-2.466
										C175.055,139.848,175.462,139.629,175.54,139.686z"/>
								</g>
							</g>
						</g>
					</g>
					<g>
						<g>
							<g>
								<g>
									<path style="fill:#2B0D2D;" d="M193.315,156.534c-0.149-0.014-0.153-0.34-0.349-1.257
										c-0.215-0.895-0.693-2.469-2.518-4.371c-1.857-1.89-3.217-2.859-3.834-3.783c-0.309-0.454-0.376-0.859-0.355-1.088
										c0.025-0.235,0.104-0.311,0.163-0.308c0.164,0.003,0.108,0.34,0.709,0.994c0.602,0.66,2.048,1.581,3.989,3.548
										c1.957,2.03,2.442,3.897,2.494,4.919C193.655,156.243,193.417,156.549,193.315,156.534z"/>
								</g>
							</g>
						</g>
					</g>
					<g>
						<g>
							<g>
								<g>
									<path style="fill:#2B0D2D;" d="M168.262,108.249c-0.276,0.013-0.427-0.47-0.725-2.519c-0.354-2.04-0.36-2.545-0.094-2.619
										c0.225-0.066,0.638,0.343,1.008,2.474C168.762,107.724,168.496,108.241,168.262,108.249z"/>
								</g>
							</g>
						</g>
					</g>
					<g>
						<g>
							<g>
								<g>
									<path style="fill:#2B0D2D;" d="M153.818,150.178c-0.054,0.012-0.173-0.164-0.268-0.673c-0.087-0.503-0.15-1.374,0.223-2.6
										c0.375-1.209,1.217-2.771,2.87-4.282c0.816-0.756,1.807-1.5,2.923-2.285c1.109-0.791,2.361-1.618,3.555-2.708
										c1.194-1.09,2.035-2.276,2.449-3.491c0.417-1.218,0.519-2.4,0.545-3.456c0.019-2.121-0.131-3.774-0.089-5.009
										c0.071-2.488,0.515-3.231,0.595-3.201c0.166,0.034-0.038,0.789,0.059,3.193c0.04,1.207,0.258,2.817,0.287,5.027
										c-0.004,1.101-0.087,2.377-0.542,3.746c-0.453,1.376-1.41,2.72-2.678,3.872c-1.273,1.159-2.552,1.992-3.662,2.77
										c-1.116,0.77-2.082,1.474-2.87,2.174c-1.584,1.388-2.401,2.781-2.824,3.864c-0.417,1.094-0.456,1.879-0.482,2.36
										C153.891,149.964,153.889,150.165,153.818,150.178z"/>
								</g>
							</g>
						</g>
					</g>
				</g>
			</g>
		</g>
	</g>
	<g>
		
			<ellipse transform="matrix(0.7071 -0.7071 0.7071 0.7071 3.8054 297.9346)" style="fill:#1D2C3A;" cx="361.542" cy="144.374" rx="91.905" ry="91.905"/>
		<g>
			<defs>
				
					<ellipse id="SVGID_11_" transform="matrix(0.7071 -0.7071 0.7071 0.7071 3.8054 297.9346)" cx="361.542" cy="144.374" rx="91.905" ry="91.905"/>
			</defs>
			<clipPath id="SVGID_00000109721798959598176170000005755122553594921101_">
				<use xlink:href="#SVGID_11_"  style="overflow:visible;"/>
			</clipPath>
			<g style="clip-path:url(#SVGID_00000109721798959598176170000005755122553594921101_);">
				<g>
					<g>
						<path style="fill:#FF5A7F;" d="M331.69,248.473h63.338v-77.667c0,0-15.985-5.838-36.016-4.506
							c-20.03,1.332-37.722,4.109-37.722,4.109L331.69,248.473z"/>
					</g>
					<g>
						<path style="fill:#FFD2DE;" d="M337.201,167.906c0,0,9.107,16.193,21.812,17.383s25.798-16.467,25.798-16.467l-2.777-4.553
							l-40.869-1.955L337.201,167.906z"/>
					</g>
					<path style="fill:#5E1C1C;" d="M312.797,167.906c-7.939,4.587-15.676,7.265-17.759,16.788
						c-2.083,9.523-5.059,65.47-5.059,65.47h30.354L312.797,167.906z"/>
					<path style="fill:#8C3737;" d="M341.164,154.042c0,0-19.343,11.423-24.7,12.258c-5.357,0.836-7.44,6.788-7.44,6.788
						s2.381,31.545,4.166,45.531c1.786,13.987,2.976,33.925,2.976,33.925h22.095c0,0,3.498-44.341-0.073-68.446
						S341.164,154.042,341.164,154.042z"/>
					<path style="fill:#AD7164;" d="M341.164,167.136c-1.786,6.249,0,87.492,0,87.492h-2.976c0,0,1.785-48.21,0-57.137
						c-1.786-8.928-3.571-11.904-8.333-15.772c-4.761-3.869-8.565-1.488-8.565-1.488s4.794-17.26,10.4-26.783
						c5.605-9.523,16.533-13.918,16.533-13.918s1.571,3.503,0.976,12.133C348.604,160.291,341.164,167.136,341.164,167.136z"/>
					<path style="fill:#5E1C1C;" d="M411.669,167.906c7.938,4.587,15.676,7.265,17.759,16.788c2.083,9.523,5.059,65.47,5.059,65.47
						h-30.354L411.669,167.906z"/>
					<path style="fill:#8C3737;" d="M383.302,154.042c0,0,19.343,11.423,24.7,12.258c5.357,0.836,7.44,6.788,7.44,6.788
						s-2.381,31.545-4.166,45.531c-1.786,13.987-2.976,33.925-2.976,33.925h-22.095c0,0-3.498-44.341,0.073-68.446
						C389.849,159.993,383.302,154.042,383.302,154.042z"/>
					<path style="fill:#AD7164;" d="M379.972,169.274c1.786,6.249,3.33,85.354,3.33,85.354h2.976c0,0-1.786-48.21,0-57.137
						c1.786-8.928,3.571-11.904,8.333-15.772c4.761-3.869,8.565-1.488,8.565-1.488s-4.794-17.26-10.4-26.783
						c-5.605-9.523-16.533-13.918-16.533-13.918s-1.571,3.503-0.976,12.133C375.862,160.291,379.972,169.274,379.972,169.274z"/>
					<g>
						<path style="fill:#E6614D;" d="M380.934,168.528c-0.476,0-11.915,11.701-21.319,11.701c-9.523,0-18.451-13.094-18.451-13.094
							s6.047-8.832,6.642-14.487c0.167-1.643,0.274-3.428,0.345-5.142c0.167-4.214,0.072-7.975,0.072-7.975l27.926-0.762
							c0,0-0.107,2.417-0.155,5.642c-0.071,3.428-0.071,7.785,0.19,11.118C376.649,161.684,380.72,168.183,380.934,168.528z"/>
					</g>
					<g style="opacity:0.44;">
						<path style="fill:#A5202D;" d="M376.149,138.769c0,0-0.107,2.417-0.155,5.642c-2.5,1.155-6.928,2.785-13.023,3.523
							c-6.333,0.762-11.749,0.119-14.82-0.428c0.167-4.214,0.072-7.975,0.072-7.975L376.149,138.769z"/>
					</g>
					<g>
						<g>
							<g>
								<g>
									<path style="fill:#5E1C1C;" d="M338.934,201.429c-0.022,0.134-0.664,0.126-2.648-0.063
										c-1.984-0.173-5.315-0.574-10.748-0.711c-5.433-0.097-8.778,0.159-10.768,0.246c-1.99,0.104-2.632,0.083-2.648-0.051
										c-0.014-0.119,0.599-0.329,2.588-0.6c1.987-0.255,5.361-0.618,10.848-0.52c5.487,0.139,8.841,0.647,10.816,0.988
										C338.35,201.075,338.954,201.31,338.934,201.429z"/>
								</g>
							</g>
						</g>
					</g>
					<g>
						<g>
							<g>
								<g>
									<path style="fill:#5E1C1C;" d="M339.94,204.098c-0.027,0.135-0.689,0.096-2.734-0.16
										c-2.046-0.236-5.482-0.748-11.101-0.908c-5.62-0.11-9.077,0.237-11.131,0.375c-2.055,0.158-2.719,0.165-2.739,0.029
										c-0.018-0.117,0.611-0.352,2.664-0.679c2.051-0.306,5.542-0.761,11.229-0.65c5.685,0.162,9.151,0.784,11.185,1.188
										C339.347,203.717,339.964,203.982,339.94,204.098z"/>
								</g>
							</g>
						</g>
					</g>
					<g>
						<g>
							<g>
								<g>
									<path style="fill:#5E1C1C;" d="M412.442,205.623c-0.041,0.127-0.676,0.027-2.611-0.471
										c-1.937-0.486-5.168-1.406-10.498-2.527c-5.336-1.09-8.667-1.53-10.637-1.854c-1.973-0.311-2.596-0.472-2.583-0.605
										c0.012-0.121,0.656-0.191,2.659-0.045c2,0.159,5.372,0.499,10.749,1.598c5.371,1.129,8.601,2.157,10.499,2.807
										C411.917,205.187,412.48,205.507,412.442,205.623z"/>
								</g>
							</g>
						</g>
					</g>
					<g>
						<g>
							<g>
								<g>
									<path style="fill:#5E1C1C;" d="M411.104,208.294c-0.028,0.128-0.628,0.107-2.464-0.185
										c-1.838-0.285-4.91-0.861-9.925-1.619c-5.018-0.74-8.124-1.086-9.965-1.351c-1.842-0.257-2.422-0.412-2.411-0.543
										c0.01-0.124,0.608-0.2,2.473-0.109c1.863,0.098,4.997,0.343,10.04,1.087c5.04,0.761,8.109,1.443,9.92,1.893
										C410.58,207.926,411.13,208.173,411.104,208.294z"/>
								</g>
							</g>
						</g>
					</g>
					<g>
						<g>
							<g>
								<g>
									<path style="fill:#5E1C1C;" d="M415.095,172.564c-0.054,0.118-0.474,0.046-1.689-0.403
										c-1.207-0.466-3.235-1.248-6.527-2.518c-3.318-1.202-5.362-1.942-6.578-2.382c-1.211-0.459-1.575-0.68-1.539-0.805
										c0.035-0.12,0.464-0.122,1.731,0.179c1.265,0.306,3.377,0.902,6.71,2.141c3.328,1.252,5.313,2.188,6.468,2.787
										C414.825,172.167,415.147,172.45,415.095,172.564z"/>
								</g>
							</g>
						</g>
					</g>
					<g>
						<g>
							<g>
								<g>
									<path style="fill:#5E1C1C;" d="M308.359,171.981c-0.083-0.242,1.541-1.022,8.828-3.537c7.287-2.515,9.047-2.904,9.13-2.662
										c0.083,0.242-1.541,1.022-8.828,3.537S308.442,172.223,308.359,171.981z"/>
								</g>
							</g>
						</g>
					</g>
					<g>
						<g>
							<g>
								<g>
									<path style="fill:#C9395F;" d="M373.318,218.906c-0.03,0.108-0.768,0.06-2.963-0.593c-2.174-0.681-5.882-1.9-11.283-5.089
										c-5.358-3.262-8.18-5.958-9.805-7.555c-1.61-1.628-2-2.257-1.919-2.334c0.103-0.1,0.66,0.367,2.366,1.855
										c1.722,1.458,4.562,4.03,9.835,7.24c5.315,3.138,8.922,4.432,11.019,5.264
										C372.683,218.497,373.358,218.768,373.318,218.906z"/>
								</g>
							</g>
						</g>
					</g>
					<g>
						<g>
							<g>
								<g>
									<path style="fill:#C9395F;" d="M355.531,203.272c0.019-0.152,0.619-0.116,2.465-0.132c0.922-0.037,2.16-0.078,3.771-0.338
										c1.603-0.272,3.599-0.726,5.893-1.742c2.298-1.009,3.974-2.182,5.24-3.199c1.276-1.017,2.121-1.917,2.72-2.608
										c1.172-1.407,1.456-1.94,1.593-1.867c0.091,0.041,0.015,0.689-1.078,2.271c-0.559,0.776-1.395,1.767-2.689,2.859
										c-1.286,1.095-3.02,2.341-5.412,3.391c-2.388,1.057-4.473,1.505-6.143,1.739c-1.679,0.222-2.963,0.195-3.911,0.148
										C356.083,203.64,355.516,203.372,355.531,203.272z"/>
								</g>
							</g>
						</g>
					</g>
				</g>
				<g>
					<path style="fill:#752D29;" d="M388.576,106.561c2.236-0.02,4.415,1.104,4.415,1.104s-2.427-2.131,2.334-6.892
						c4.762-4.762,5.734-12.301,1.875-15.475c-3.859-3.174-12.191-2.407-12.191-2.407s1.19-11.878-11.507-17.036
						c-12.697-5.158-18.451,1.389-25.395,1.587c-6.944,0.198-12.102,4.166-12.697,6.745c-0.595,2.579,0,6.944,0,6.944
						s-3.174,0-3.77,2.579c-0.595,2.579,0,4.96,0,4.96s-3.174-0.198-4.96,4.365c-1.785,4.563,0,8.76,0,8.76s1.19,2.35,3.373,2.946
						c2.182,0.595,0.198,2.078,2.976,3.817c2.778,1.738,14.483,2.674,14.483,2.674L388.576,106.561z"/>
					<path style="fill:#FFFFFF;stroke:#000000;stroke-width:0.2689;stroke-miterlimit:10;" d="M336.493,111.432
						c0,1.326-1.075,2.402-2.402,2.402c-1.326,0-2.402-1.075-2.402-2.402c0-1.326,1.075-2.402,2.402-2.402
						C335.418,109.03,336.493,110.105,336.493,111.432z"/>
					<g>
						<path style="fill:#E6614D;" d="M395.028,111.427c0,3.143-2.547,5.69-5.69,5.69c-0.345,0-0.69-0.036-1.024-0.095
							c-1.44,7.737-4.428,19.177-14.749,22.915c-11.487,4.154-24.164,2.619-30.842-4.381c-3.369-3.547-5.595-11.582-6.976-18.677
							c-0.524,0.155-1.083,0.238-1.655,0.238c-3.143,0-5.69-2.547-5.69-5.69c0-3.119,2.524-5.654,5.642-5.678
							c-0.119-1.131-0.179-1.786-0.179-1.786s0.333-1.857,1.976-3.178c1.631-1.309,4.583,0.44,6.88-4.809
							c2.297-5.249-0.869-8.523-0.869-8.523s4.476,1.75,8.749-2.19c4.262-3.94,5.357-2.071,10.999-0.762
							c5.654,1.309,6.059,3.381,11.416,4.369c5.357,0.988,8.416-1.309,8.416-1.309s0.988,0.762,3.714,3.821
							c2.738,3.071,3.607,6.999,3.607,6.999s0.488,3.178,0.571,7.368h0.012C392.481,105.749,395.028,108.296,395.028,111.427z"/>
					</g>
					<path style="fill:#752D29;" d="M335.474,100.416c-0.024-0.476-0.024-0.679,0.036-0.536
						C335.581,100.071,335.557,100.249,335.474,100.416z"/>
					<g>
						<g>
							<path style="fill:#C93547;" d="M391.743,111.432c0,1.326-1.075,2.402-2.402,2.402c-1.326,0-2.401-1.075-2.401-2.402
								c0-1.326,1.075-2.402,2.401-2.402C390.668,109.03,391.743,110.105,391.743,111.432z"/>
						</g>
						<g>
							<path style="fill:#C93547;" d="M335.88,111.432c0,1.326-1.075,2.402-2.402,2.402c-1.326,0-2.402-1.075-2.402-2.402
								c0-1.326,1.075-2.402,2.402-2.402C334.804,109.03,335.88,110.105,335.88,111.432z"/>
						</g>
						<g>
							<path style="fill:#AA3039;" d="M360.996,123.059c0.066,0.103,0.059,0.267-0.15,0.481c-0.206,0.206-0.639,0.467-1.352,0.513
								c-0.681,0.014-1.756-0.062-2.716-1.192c-0.934-1.091-0.957-3.314,0.631-4.699c0.548-0.486,1.163-0.781,1.748-0.938
								c0.147-0.037,0.292-0.068,0.434-0.087c0.094-0.015,0.106-0.014,0.106-0.014c0.007,0,0.023,0.001,0.023,0.001l0.03,0.017
								c0.013,0.004,0.016-0.008,0.026-0.019l0.013-0.023c0-0.107-0.001-0.211-0.001-0.312c0.006-0.411,0.012-0.78,0.016-1.108
								c0.022-0.658,0.064-1.16,0.121-1.538c0.116-0.755,0.296-1.012,0.505-1.023c0.209-0.011,0.415,0.226,0.609,0.965
								c0.097,0.369,0.191,0.864,0.281,1.517c0.039,0.327,0.083,0.692,0.132,1.101c0.011,0.104,0.021,0.21,0.032,0.32
								c0.016,0.208,0.031,0.422,0.048,0.641c0.03,0.443,0.061,0.908,0.094,1.396c-0.368-0.043-0.777-0.091-1.222-0.144
								c-0.115-0.015-0.199,0.003-0.303,0.003c-0.11,0.003-0.208,0.008-0.222,0.018c-0.077,0.013-0.157,0.034-0.239,0.056
								c-0.326,0.097-0.692,0.279-1,0.555c-0.854,0.772-0.828,1.816-0.48,2.315c0.328,0.527,0.986,0.784,1.411,0.886
								C360.466,122.936,360.844,122.811,360.996,123.059z"/>
						</g>
						<g>
							<path style="fill:#AA3039;" d="M366.465,129.65c0.058,0.105-0.09,0.339-0.763,0.74c-0.672,0.384-1.886,0.984-4.012,1.297
								c-2.132,0.274-3.463,0.025-4.214-0.163c-0.756-0.204-0.962-0.389-0.935-0.506c0.03-0.132,0.288-0.173,1.033-0.141
								c0.743,0.018,1.991,0.15,3.989-0.106c1.992-0.293,3.158-0.758,3.869-0.976C366.142,129.561,366.401,129.531,366.465,129.65z"
								/>
						</g>
						<path style="fill:#350E0D;" d="M349.199,111.982c0,2.137-0.844,3.869-1.885,3.869s-1.885-1.732-1.885-3.869
							c0-2.137,0.844-3.869,1.885-3.869S349.199,109.845,349.199,111.982z"/>
						<path style="fill:#350E0D;" d="M377.017,111.982c0,2.137-0.844,3.869-1.885,3.869c-1.041,0-1.885-1.732-1.885-3.869
							c0-2.137,0.844-3.869,1.885-3.869C376.173,108.113,377.017,109.845,377.017,111.982z"/>
						<path style="fill:#752D29;" d="M351.07,103.169c-0.319,0.226-0.721,0.215-1.316-0.065c-0.593-0.238-1.449-0.87-2.743-0.917
							c-1.294,0.039-2.152,0.666-2.746,0.901c-0.596,0.277-0.998,0.287-1.316,0.06c-0.304-0.215-0.489-0.622-0.105-1.415
							c0.201-0.387,0.552-0.873,1.202-1.352c0.641-0.467,1.621-0.96,2.974-0.971c1.352,0.02,2.329,0.518,2.967,0.988
							c0.647,0.482,0.995,0.97,1.195,1.357C351.561,102.549,351.375,102.955,351.07,103.169z"/>
						<path style="fill:#752D29;" d="M379.409,102.82c-0.287,0.259-0.711,0.286-1.39-0.063c-0.338-0.165-0.741-0.424-1.2-0.647
							c-0.469-0.217-0.931-0.385-1.739-0.387c-1.627,0.037-2.366,0.57-2.909,0.835c-0.539,0.301-0.926,0.423-1.289,0.262
							c-0.329-0.139-0.631-0.535-0.255-1.474c0.344-0.89,1.801-2.391,4.459-2.4c1.308-0.027,2.492,0.487,3.145,1.031
							c0.674,0.543,0.995,1.035,1.197,1.413C379.81,102.157,379.691,102.566,379.409,102.82z"/>
					</g>
					<g>
						<g>
							<g>
								<g>
									<path style="fill:#541615;" d="M373.111,75.545c0.05-0.103,0.372-0.11,1.194,0.312c0.794,0.433,2.183,1.3,3.588,3.425
										c1.349,2.161,1.56,3.785,1.622,4.687c0.042,0.923-0.099,1.213-0.213,1.216c-0.141,0.006-0.234-0.278-0.435-1.121
										c-0.221-0.829-0.51-2.287-1.753-4.282c-1.296-1.961-2.502-2.83-3.164-3.375C373.266,75.873,373.047,75.671,373.111,75.545z
										"/>
								</g>
							</g>
						</g>
					</g>
					<g>
						<g>
							<g>
								<g>
									<path style="fill:#541615;" d="M365.683,79.208c0.099-0.083,0.38,0.081,1.059,0.758c0.699,0.649,1.704,1.928,3.7,3.492
										c2.039,1.509,3.591,1.869,4.474,2.071c0.902,0.175,1.214,0.226,1.221,0.368c0.008,0.112-0.292,0.299-1.299,0.282
										c-0.981-0.041-2.759-0.353-4.952-1.981c-2.132-1.674-3.063-3.047-3.643-3.809
										C365.687,79.598,365.586,79.289,365.683,79.208z"/>
								</g>
							</g>
						</g>
					</g>
					<g>
						<g>
							<g>
								<g>
									<path style="fill:#541615;" d="M369.091,79.258c0.164-0.196,0.548-0.146,1.631,0.757c1.084,0.903,1.203,1.272,1.039,1.468
										c-0.164,0.196-0.548,0.146-1.631-0.757C369.046,79.823,368.927,79.454,369.091,79.258z"/>
								</g>
							</g>
						</g>
					</g>
					<g>
						<g>
							<g>
								<g>
									<path style="fill:#541615;" d="M343.168,81.864c0.106-0.138,0.415,0.226,1.612,0.446c0.595,0.084,1.448,0.086,2.466-0.295
										c1.037-0.378,2.179-1.198,3.611-2.314c1.436-1.115,2.832-1.89,4.097-2.089c1.281-0.206,2.257,0.11,2.88,0.461
										c0.63,0.365,0.922,0.774,1.053,1.03c0.13,0.264,0.121,0.391,0.069,0.42c-0.059,0.034-0.158-0.032-0.354-0.199
										c-0.198-0.163-0.505-0.432-1.06-0.665c-0.547-0.223-1.383-0.422-2.428-0.21c-1.065,0.212-2.287,0.896-3.698,1.99
										c-1.411,1.099-2.681,1.994-3.882,2.379c-1.207,0.398-2.206,0.321-2.892,0.132c-0.693-0.197-1.082-0.5-1.282-0.706
										C343.159,82.031,343.128,81.908,343.168,81.864z"/>
								</g>
							</g>
						</g>
					</g>
					<g>
						<g>
							<g>
								<g>
									<path style="fill:#541615;" d="M345.219,77.996c-0.003,0.227-0.318,0.526-1.498,0.175
										c-1.154-0.429-1.225-0.858-1.091-1.041c0.155-0.232,0.433-0.188,1.385,0.163C344.986,77.586,345.235,77.717,345.219,77.996
										z"/>
								</g>
							</g>
						</g>
					</g>
					<g>
						<g>
							<g>
								<g>
									<path style="fill:#541615;" d="M364.982,69.881c-0.01-0.113,0.357-0.293,1.57-0.375c1.199-0.056,3.313-0.076,6.474,1.013
										c3.137,1.155,4.762,2.508,5.656,3.309c0.888,0.831,1.058,1.202,0.979,1.284c-0.097,0.103-0.429-0.1-1.389-0.773
										c-0.968-0.647-2.566-1.846-5.556-2.947c-3.013-1.038-5.009-1.12-6.168-1.23C365.378,70.075,364.992,70.022,364.982,69.881z
										"/>
								</g>
							</g>
						</g>
					</g>
					<g>
						<g>
							<g>
								<g>
									<path style="fill:#541615;" d="M349.331,71.731c-0.051-0.112,0.196-0.364,1.129-0.841c0.934-0.466,2.556-1.19,5.328-1.91
										c2.778-0.696,4.548-0.838,5.592-0.876c1.048-0.028,1.385,0.075,1.394,0.198c0.01,0.132-0.31,0.26-1.322,0.453
										c-1.01,0.203-2.721,0.443-5.434,1.122c-2.707,0.704-4.324,1.313-5.308,1.619C349.728,71.811,349.385,71.852,349.331,71.731
										z"/>
								</g>
							</g>
						</g>
					</g>
					<g>
						<g>
							<g>
								<g>
									<path style="fill:#541615;" d="M334.129,85.383c0.137,0.007,0.209,0.263,0.333,1.007c0.153,0.726,0.308,2.024,1.369,3.754
										c0.547,0.849,1.111,1.457,1.611,1.778c0.505,0.332,0.943,0.393,1.276,0.395c0.658-0.029,0.872-0.206,0.97-0.087
										c0.041,0.044,0.042,0.139-0.075,0.285c-0.115,0.142-0.362,0.346-0.809,0.451c-0.432,0.103-1.108,0.083-1.8-0.311
										c-0.696-0.391-1.345-1.072-1.954-2.013c-1.188-1.937-1.25-3.414-1.241-4.207C333.85,85.616,334.012,85.376,334.129,85.383z
										"/>
								</g>
							</g>
						</g>
					</g>
					<g>
						<g>
							<g>
								<g>
									<path style="fill:#541615;" d="M330.557,97.067c0.083-0.105,0.256-0.096,0.646,0.057c0.392,0.143,1.007,0.464,2.095,0.66
										c1.093,0.168,1.779,0.064,2.196,0.056c0.419-0.019,0.585,0.029,0.63,0.155c0.041,0.114-0.045,0.286-0.475,0.48
										c-0.423,0.181-1.224,0.419-2.503,0.222c-1.274-0.228-1.954-0.713-2.296-1.021
										C330.507,97.352,330.481,97.161,330.557,97.067z"/>
								</g>
							</g>
						</g>
					</g>
					<g>
						<g>
							<g>
								<g>
									<path style="fill:#541615;" d="M395.963,92.363c-0.153-0.026-0.091-0.374-0.306-1.313
										c-0.227-0.893-0.926-2.585-3.465-3.673c-2.549-1.019-4.329-1.003-5.329-1.08c-1.021-0.038-1.363-0.071-1.382-0.208
										c-0.017-0.116,0.292-0.314,1.358-0.446c1.049-0.087,2.941-0.225,5.719,0.884c1.379,0.589,2.358,1.428,2.926,2.261
										c0.571,0.83,0.766,1.594,0.818,2.153C396.37,92.083,396.052,92.393,395.963,92.363z"/>
								</g>
							</g>
						</g>
					</g>
					<g>
						<g>
							<g>
								<g>
									<path style="fill:#541615;" d="M392.08,95.732c-0.132-0.026-0.203-0.182-0.25-0.594c-0.057-0.407-0.065-1.094-0.429-2.123
										c-0.392-1.02-0.833-1.546-1.054-1.893c-0.231-0.343-0.279-0.508-0.196-0.614c0.074-0.095,0.266-0.115,0.656,0.149
										c0.375,0.265,0.997,0.829,1.461,2.037c0.432,1.219,0.326,2.053,0.213,2.498C392.357,95.646,392.199,95.756,392.08,95.732z"
										/>
								</g>
							</g>
						</g>
					</g>
					<path style="fill:#752D29;" d="M390.362,104.737c-1.071-0.298-1.071-0.298-1.071-0.298s-2.012,4.559-2.345,6.987
						c-0.345,2.44-1.536,9.975-3.226,14.142c-1.69,4.166-4.964,7.44-6.047,7.44c-1.095,0-5.464-7.035-7.642-7.833
						c-2.178-0.798-12.499-0.69-14.975-0.643c-2.488,0.048-4.571,1.833-6.452,3.321c-1.881,1.488-4.666,3.178-4.666,3.178
						s-3.262-7.19-5.357-13.392c-1.75-5.202-2.952-14.784-3.107-17.224c-0.321,0.595-1.464,1.071-1.845,1.845
						c-0.5,0.988,0.417,3.488,0.417,3.488c1.369,6.63,1.071,11.892,1.667,15.165c0.595,3.273,3.571,12.392,5.154,15.272
						c1.583,2.881,6.94,8.428,19.736,8.428c12.796,0,21.629-5.845,23.914-10.606c2.274-4.761,4.988-14.927,4.821-16.891
						c-0.167-1.964-1.012-7.13,0.012-9.201c1.012-2.071,3.119-1.226,3.119-1.226S391.445,105.034,390.362,104.737z M375.09,135.793
						c-0.5,0.595-4.369,3.762-13.987,3.762c-9.618,0-13.689-3.762-13.784-5.154c0,0-0.107-0.69,0.595-1
						c0.691-0.309,4.464-4.452,5.845-5.154c1.393-0.69,3.083-1.083,7.464-0.988c4.392,0.095,6.821-0.298,8.606,0.595
						C371.614,128.746,375.589,135.198,375.09,135.793z"/>
				</g>
			</g>
		</g>
	</g>
	<g>
		<circle style="fill:#1D2C3A;" cx="141.496" cy="352.291" r="91.905"/>
		<g>
			<defs>
				<circle id="SVGID_13_" cx="141.496" cy="352.291" r="91.905"/>
			</defs>
			<clipPath id="SVGID_00000005245099772278522540000010937066662710899886_">
				<use xlink:href="#SVGID_13_"  style="overflow:visible;"/>
			</clipPath>
			<g style="clip-path:url(#SVGID_00000005245099772278522540000010937066662710899886_);">
				<g>
					<path style="fill:#FFB7B0;" d="M153.178,343.551c0,0,0,1.048,0,2.595c-1.702,0.702-3.619,1.226-5.749,1.559
						c-0.059,0.595-0.095,1.155-0.107,1.678c-0.524-0.417-1.071-0.905-1.643-1.44c-1.345,0.143-2.762,0.214-4.273,0.214
						c-0.417,0-0.833-0.012-1.238-0.036c-3.881-0.155-7.083-1.095-9.737-2.583c0-1.202,0-1.988,0-1.988l8.392,1.559l2.976,0.547
						l1.405-0.262l4.619-0.857L153.178,343.551z"/>
				</g>
				<g>
					<g>
						<path style="fill:#FFB7B0;" d="M171.313,372.56c6.845,0,11.904,1.042,17.26,4.613c5.357,3.571,10.267,19.195,11.755,29.164
							c1.488,9.969,2.083,24.403,3.571,29.164c1.488,4.762,4.761,22.831,4.761,22.831h-24.254c0,0-2.976-13.904-4.91-20.004
							c-1.934-6.101-5.059-13.689-5.059-13.689s0.149-21.129-0.446-33.628C173.397,378.512,171.313,372.56,171.313,372.56z"/>
					</g>
					<g>
						<path style="fill:#FFB7B0;" d="M112.694,374.818c-8.933-1.259-15.383,0.979-18.279,5.717
							c-2.896,4.739-10.399,43.44-14.743,53.181s-7.635,23.36-7.635,23.36h25.406l12.11-22.175c0,0,2.238-53.181,2.501-54.76
							C112.317,378.561,112.694,374.818,112.694,374.818z"/>
					</g>
					<g>
						<path style="fill:#FFB7B0;" d="M165.629,371.322c0,0-1.976,1.178-3.69,3.5c-1.702,2.309-3.023,6.761-8.761,13.082
							c-5.726,6.321-11.38,6.321-11.38,6.321s-5.642,0-11.368-6.321c-5.738-6.321-7.059-10.773-8.773-13.082
							c-1.702-2.321-3.678-3.5-3.678-3.5s8.023-3.428,10.261-6.714c2.238-3.297,2.19-3.952,2.19-6.583v-8.011
							c0-3.369,0-6.464,0-6.464l11.368,2.107l11.38-2.107c0,0,0,3.297,0,6.797v7.678c0,2.631-0.059,3.285,2.178,6.583
							C157.594,367.894,165.629,371.322,165.629,371.322z"/>
					</g>
					<g>
						<path style="fill:#F4929A;" d="M153.178,343.551c0,0,0,3.297,0,6.797c-3.297,1.393-9.178,3.416-14.249,2.702
							c-4.13-0.583-6.868-1.94-8.499-3.035c0-3.369,0-6.464,0-6.464l11.368,2.107L153.178,343.551z"/>
					</g>
					<g>
						<path style="fill:#5767BE;" d="M119.142,370.794c4.057,0.835,8.445,13.032,13.184,16.586
							c4.739,3.554,7.673,7.634,14.612,3.686c6.939-3.948,11.661-13.192,14.348-16.849c2.687-3.657,3.818-4.998,5.529-5.329
							c1.711-0.331,5.397,1.907,6.187,2.96c0.79,1.053,2.106,12.582,5.397,20.837c3.291,8.255,2.106,22.076,1.053,28.263
							c-1.053,6.187-5.265,13.032-5.792,17.508c-0.527,4.476,5.397,19.877,5.397,19.877h-74.111c0,0,5.134-8.556,4.87-13.295
							c-0.263-4.739-7.108-23.958-8.293-33.304s5.924-28.433,8.03-34.489C111.659,371.189,115.304,370.004,119.142,370.794z"/>
					</g>
					<g>
						<g>
							<g>
								<g>
									<path style="fill:#322F68;" d="M116.711,400.136c-0.119,0.02-0.337-0.477-0.65-2.115c-0.298-1.637-0.734-4.424-0.814-8.984
										c-0.044-4.56,0.315-7.358,0.569-9.003c0.269-1.646,0.473-2.148,0.593-2.132c0.133,0.018,0.158,0.554,0.058,2.203
										c-0.086,1.649-0.338,4.417-0.294,8.919c0.079,4.501,0.406,7.261,0.537,8.908
										C116.854,399.578,116.844,400.114,116.711,400.136z"/>
								</g>
							</g>
						</g>
					</g>
					<g>
						<g>
							<g>
								<g>
									<path style="fill:#322F68;" d="M159.601,393.216c-0.117-0.063,0.027-0.547,0.658-1.966
										c0.621-1.424,1.758-3.774,3.302-7.714c1.518-3.95,2.263-6.452,2.765-7.922c0.492-1.474,0.711-1.928,0.84-1.896
										c0.119,0.03,0.124,0.54-0.21,2.07c-0.344,1.525-0.998,4.088-2.533,8.082c-1.561,3.985-2.806,6.318-3.581,7.676
										C160.057,392.901,159.709,393.274,159.601,393.216z"/>
								</g>
							</g>
						</g>
					</g>
					<g>
						<g>
							<g>
								<g>
									<path style="fill:#322F68;" d="M164.178,391.228c-0.241-0.084-0.287-0.582,0.357-2.433c0.645-1.851,0.99-2.213,1.231-2.129
										c0.241,0.084,0.287,0.582-0.357,2.434C164.764,390.951,164.419,391.313,164.178,391.228z"/>
								</g>
							</g>
						</g>
					</g>
					<g>
						<g>
							<g>
								<g>
									<path style="fill:#322F68;" d="M123.639,436.847c-0.096,0.076-0.517-0.252-1.566-1.512
										c-1.038-1.266-2.735-3.453-5.059-7.284c-2.3-3.846-3.439-6.368-4.073-7.878c-0.624-1.516-0.717-2.041-0.605-2.091
										c0.121-0.054,0.426,0.377,1.196,1.81c0.78,1.427,1.999,3.876,4.275,7.681c2.3,3.79,3.894,6.013,4.791,7.37
										C123.505,436.295,123.744,436.765,123.639,436.847z"/>
								</g>
							</g>
						</g>
					</g>
					<g>
						<g>
							<g>
								<g>
									<path style="fill:#322F68;" d="M124.007,429.925c-0.205,0.153-0.706-0.173-2.149-2.109
										c-1.443-1.936-1.612-2.51-1.407-2.663c0.205-0.153,0.706,0.173,2.149,2.11
										C124.043,429.199,124.212,429.772,124.007,429.925z"/>
								</g>
							</g>
						</g>
					</g>
					<g>
						<g>
							<g>
								<g>
									<path style="fill:#322F68;" d="M158.764,421.361c0.019,0.061-0.179,0.18-0.722,0.392c-0.545,0.207-1.426,0.542-2.814,0.878
										c-2.747,0.661-7.555,1.765-15.365,1.088c-7.794-0.834-12.301-2.841-14.871-4.017c-1.297-0.596-2.098-1.094-2.593-1.402
										c-0.493-0.312-0.664-0.467-0.634-0.523c0.03-0.056,0.26-0.008,0.799,0.203c0.542,0.207,1.378,0.611,2.691,1.123
										c2.603,1.008,7.05,2.876,14.696,3.694c7.661,0.664,12.384-0.315,15.132-0.805c1.386-0.25,2.285-0.486,2.856-0.585
										C158.51,421.303,158.745,421.3,158.764,421.361z"/>
								</g>
							</g>
						</g>
					</g>
					<g>
						<g>
							<g>
								<g>
									<path style="fill:#322F68;" d="M141.508,430.867c0.021-0.131,0.22-0.203,0.786-0.227c0.565-0.034,1.507,0.008,3.01-0.207
										c1.499-0.239,2.387-0.556,2.937-0.691c0.548-0.144,0.759-0.134,0.818-0.015c0.055,0.11-0.051,0.306-0.562,0.617
										c-0.511,0.3-1.437,0.746-3.054,1.004c-1.621,0.231-2.638,0.078-3.214-0.057
										C141.647,431.144,141.488,430.988,141.508,430.867z"/>
								</g>
							</g>
						</g>
					</g>
					<g>
						<g>
							<g>
								<g>
									<path style="fill:#322F68;" d="M158.383,437.843c-0.107-0.08,0.216-0.681,1.389-2.45c1.163-1.776,3.205-4.704,6.22-9.647
										c2.99-4.958,4.643-8.123,5.68-9.974c1.027-1.858,1.411-2.422,1.531-2.364c0.11,0.053-0.065,0.717-0.947,2.659
										c-0.892,1.935-2.464,5.17-5.473,10.16c-3.035,4.975-5.177,7.864-6.48,9.549
										C158.989,437.454,158.481,437.916,158.383,437.843z"/>
								</g>
							</g>
						</g>
					</g>
					<g>
						<g>
							<g>
								<g>
									<path style="fill:#322F68;" d="M160.229,429.147c-0.22-0.13-0.085-0.763,1.262-3.03c1.347-2.267,1.838-2.688,2.057-2.557
										c0.22,0.13,0.085,0.763-1.262,3.03C160.94,428.857,160.449,429.278,160.229,429.147z"/>
								</g>
							</g>
						</g>
					</g>
					<g>
						<g>
							<g>
								<g>
									<path style="fill:#322F68;" d="M155.789,450.923c0.013,0.063-0.192,0.163-0.747,0.322
										c-0.555,0.155-1.453,0.402-2.848,0.612c-2.764,0.41-7.582,1.077-15.226-0.154c-7.619-1.377-11.942-3.605-14.414-4.909
										c-1.246-0.661-2.011-1.193-2.483-1.523c-0.47-0.334-0.631-0.497-0.597-0.551c0.033-0.055,0.257,0.004,0.779,0.241
										c0.524,0.232,1.33,0.672,2.598,1.25c2.516,1.14,6.793,3.229,14.273,4.58c7.504,1.208,12.232,0.658,14.984,0.418
										c1.387-0.125,2.294-0.272,2.865-0.317C155.544,450.842,155.775,450.861,155.789,450.923z"/>
								</g>
							</g>
						</g>
					</g>
					<g>
						<g>
							<g>
								<g>
									<path style="fill:#322F68;" d="M143.292,445.609c-0.014-0.255,0.946-0.517,5.132-0.755c4.186-0.238,5.17-0.086,5.185,0.169
										c0.014,0.255-0.946,0.517-5.132,0.755C144.291,446.016,143.307,445.865,143.292,445.609z"/>
								</g>
							</g>
						</g>
					</g>
				</g>
				<g>
					<path style="fill:#40235E;" d="M140.167,348.122c-3.881-0.155-7.083-1.095-9.737-2.583v7.333
						c-4.892,0.143-8.702-0.476-12.189-2.607c-5.797-3.559-7.868-3.238-9.344-3.821c0,0,0,0-0.012-0.012c-0.012,0-0.012,0-0.024,0
						c-0.024-0.012-0.06-0.024-0.119-0.048c-1.678-0.738-7.142-3.964-9.059-14.154c-1.167-6.226,0.559-11.166,3.238-15.034
						c1.845-2.678,4.143-4.833,6.237-6.559c1.702-1.393,3.905-2.893,6.178-4.178c1.06-0.595,2.131-1.155,3.167-1.607
						c1.726-0.786,3.357-1.357,4.714-1.547c1.369-0.226,2.452-0.06,3.035,0.619c2.262,2.631,1.202,15.796,5.416,25.141
						c2.286,5.083,5.083,11.368,7.154,16.046C139.31,346.217,139.763,347.229,140.167,348.122z"/>
					<path style="fill:#6B3698;" d="M192.877,318.148c-3.178,6.047-7.321,6.119-9.678,8.487c-0.774,0.774-1.345,1.798-1.643,3.357
						c-1.178,6.309,1.452,6.44-1.714,11.32c-3.154,4.869-6.178,4.214-9.737,6.845c-3.559,2.631-4.214,5.13-9.083,4.869
						c-3.869-0.202-5.583-2.333-7.844-2.393v-4.488c-1.702,0.702-3.619,1.226-5.749,1.559c-0.571,0.095-1.155,0.178-1.75,0.238
						c-0.798-0.75-1.631-1.607-2.476-2.547c-5.047-5.607-10.689-14.237-12.32-20.939c-1.393-5.69,0.643-18.713,3.012-30.271
						c0.036-0.214,0.083-0.428,0.131-0.655c0.5-2.44,1.024-4.821,1.524-7.035c0.238-1.071,0.476-2.119,0.714-3.107
						c1.476-6.285,2.643-10.666,2.643-10.666s1.178,0.06,3.012,0.107c0.012,0,0.012,0,0.012,0c2.904,0.083,7.464,0.131,11.725-0.107
						c6.976-0.393,10.261,0.393,13.165,3.428c2.893,3.023,1.869,6.845,5.404,10.928c3.535,4.071,2.881,5.464,7.749,7.142
						c4.88,1.666,5.273,1.143,5.928,6.416c0.655,5.262-1.048,4.476,2.631,7.892C192.222,311.958,197.091,310.113,192.877,318.148z"
						/>
					<path style="fill:#40235E;" d="M181.556,329.992c-1.178,6.309,1.452,6.44-1.714,11.32c-3.154,4.869-6.178,4.214-9.737,6.845
						c-3.559,2.631-4.214,5.13-9.083,4.869c-3.869-0.202-5.583-2.333-7.844-2.393v-4.488c-1.702,0.702-3.619,1.226-5.749,1.559
						c0.059-0.678,0.143-1.405,0.25-2.202c0.048-0.31,0.095-0.631,0.143-0.964c1.702-10.38,9.309-29.473,9.309-29.473l5.88-5.714
						c0.012,0.012,0.012,0.012,0.012,0.012c2.833,2.226,4.857,3.607,6.392,4.547c4.869,2.976,4.904,1.547,10.285,8.035
						c1.345,1.619,2.512,3.19,3.5,4.69C182.425,327.409,181.854,328.433,181.556,329.992z"/>
					<g>
						<path style="fill:#FFB7B0;" d="M172.224,318.672c0,2.976-2.416,5.392-5.392,5.392c-0.071,0-0.155,0-0.226-0.012
							c-0.678,9.213-3.773,18.213-13.427,22.093c-1.702,0.702-3.619,1.226-5.749,1.559c-0.571,0.095-1.155,0.178-1.75,0.238
							c-1.345,0.143-2.762,0.214-4.273,0.214c-0.417,0-0.833-0.012-1.238-0.036c-3.881-0.155-7.083-1.095-9.737-2.583
							c-7.797-4.357-10.809-13.427-11.844-21.498c-0.167,0.012-0.333,0.024-0.5,0.024c-2.976,0-5.392-2.416-5.392-5.392
							c0-2.988,2.416-5.404,5.392-5.404h0.012c0.012-1.059,0.048-2.071,0.071-3.047c0.083-1.952,0.202-3.738,0.333-5.369
							c0.595-6.94,1.583-10.927,1.583-10.927c0.155-0.393,0.321-0.774,0.488-1.131c1.357-2.857,3.321-4.892,5.678-6.321
							c2.893-1.786,6.368-2.654,10.011-3.083c2.178-0.262,4.428-0.357,6.63-0.381c1.178,2.905,4.654,6.773,8.654,9.594
							c0.345,0.238,0.667,0.488,0.976,0.726c4.071,3.214,5.261,6.642,7.844,11.785c0.833,1.678,1.762,3.095,2.643,4.238
							c0.012,0.012,0.012,0.012,0.012,0.012c1.786,2.321,3.393,3.583,3.738,3.845v0.059h0.071c0.928,0,1.809,0.238,2.571,0.655
							C171.081,314.839,172.224,316.613,172.224,318.672z"/>
					</g>
					<path style="fill:#6B3698;" d="M125.875,291.286c0.527,15.138-11.321,21.193-16.586,28.17
						c-5.265,6.977-7.767,10.004-6.582,16.718s6.187,10.266,6.187,10.266s-11.847-4.474-17.244-9.871
						c-5.397-5.397-9.609-16.981-3.817-25.011c5.792-8.03,13.69-9.478,16.454-9.478c2.764,0,3.817-1.448,3.817-1.448
						s-1.58-1.58-5.397-2.369c-3.817-0.79-4.739,2.238-6.713,2.369c-1.975,0.132-2.369-1.58-0.132-2.369
						c2.238-0.79,2.896-1.667,4.476-3.796c1.58-2.128,8.425,0,8.425,0s0.132-4.103,2.238-6.999c2.106-2.896,5.002-4.472,5.002-4.472
						s4.87-6.717,8.161-3.689C127.455,282.335,125.875,291.286,125.875,291.286z"/>
					<path style="fill:#6B3698;" d="M133.247,269.303c-8.293,1.053-14.457,5.303-15.982,12.195
						c-1.525,6.892-0.144,10.299,3.312,11.294c3.456,0.995,7.01,1.917,7.01,1.127c0-0.79-0.395-3.159-0.395-3.159
						s0,1.974,1.711,2.633c1.711,0.658,5.529,0.824,5.529,0.824s-1.711-2.536-1.448-4.642c0.263-2.106,2.764-3.949,5.265-3.291
						c2.501,0.658,1.053,3.028,5.397,5.397c4.344,2.369,9.609,3.159,8.82,1.053c-0.79-2.106-5.002-3.554-6.45-8.556
						s1.58-5.397-2.501-9.873C139.434,269.83,133.247,269.303,133.247,269.303z"/>
					<g>
						<g>
							<g>
								<g>
									<path style="fill:#40235E;" d="M122.137,291.429c-0.11-0.016-0.24-0.278-0.032-1.032c0.113-0.371,0.337-0.857,0.786-1.392
										c0.454-0.518,1.157-1.106,2.223-1.397c1.072-0.266,1.972-0.096,2.622,0.134c0.653,0.248,1.086,0.563,1.365,0.831
										c0.55,0.557,0.564,0.848,0.476,0.916c-0.109,0.09-0.311-0.048-0.875-0.398c-0.286-0.169-0.68-0.375-1.232-0.539
										c-0.55-0.15-1.281-0.258-2.123-0.049c-0.836,0.228-1.422,0.679-1.829,1.079c-0.401,0.413-0.645,0.785-0.812,1.072
										C122.385,291.236,122.275,291.455,122.137,291.429z"/>
								</g>
							</g>
						</g>
					</g>
					<g>
						<g>
							<g>
								<g>
									<path style="fill:#40235E;" d="M97.804,335.675c-0.059,0.024-0.205-0.192-0.49-0.795c-0.256-0.611-0.673-1.611-0.995-3.218
										c-0.294-1.595-0.611-3.842,0.029-6.733c0.334-1.427,0.928-3.028,2.081-4.513c1.116-1.519,2.801-2.776,4.714-3.895
										c1.921-1.12,3.691-1.997,5.141-2.993c1.451-0.99,2.638-2.032,3.597-3.052c1.928-2.041,3.02-3.894,3.76-5.29
										c1.419-2.84,1.608-3.873,1.78-3.82c0.062,0.016,0.05,0.277-0.083,0.93c-0.158,0.643-0.428,1.691-1.11,3.177
										c-0.687,1.475-1.757,3.431-3.725,5.584c-0.979,1.076-2.202,2.176-3.71,3.22c-1.507,1.049-3.306,1.947-5.182,3.042
										c-1.87,1.095-3.436,2.267-4.464,3.65c-1.067,1.353-1.635,2.826-1.971,4.16c-0.646,2.701-0.418,4.866-0.213,6.421
										c0.23,1.568,0.543,2.575,0.69,3.211C97.83,335.389,97.863,335.651,97.804,335.675z"/>
								</g>
							</g>
						</g>
					</g>
					<g>
						<g>
							<g>
								<g>
									<path style="fill:#40235E;" d="M98.081,317.037c0.091,0.098-0.015,0.333-0.462,0.913c-0.437,0.586-1.247,1.506-2.257,3.204
										c-0.983,1.713-1.386,2.872-1.683,3.54c-0.286,0.674-0.438,0.881-0.568,0.85c-0.118-0.028-0.192-0.287-0.059-1.038
										c0.144-0.742,0.471-2.008,1.51-3.819c1.067-1.795,2.009-2.702,2.585-3.192C97.737,317.01,97.999,316.947,98.081,317.037z"
										/>
								</g>
							</g>
						</g>
					</g>
					<g>
						<g>
							<g>
								<g>
									<path style="fill:#40235E;" d="M90.455,319.422c-0.056,0.007-0.155-0.172-0.213-0.674c-0.05-0.495-0.049-1.347,0.41-2.511
										c0.463-1.142,1.405-2.62,3.258-3.846c1.838-1.229,4.495-1.985,7.704-2.489c3.207-0.501,5.731-1.056,7.538-2.015
										c1.799-0.937,2.858-2.122,3.477-3.061c0.618-0.956,0.829-1.693,0.959-2.145c0.124-0.456,0.18-0.645,0.25-0.641
										c0.057,0.002,0.125,0.194,0.105,0.698c-0.026,0.496-0.153,1.333-0.754,2.425c-0.603,1.073-1.705,2.414-3.64,3.477
										c-1.921,1.074-4.588,1.675-7.782,2.174c-3.191,0.502-5.683,1.202-7.401,2.296c-1.709,1.076-2.624,2.386-3.116,3.39
										c-0.49,1.024-0.588,1.785-0.648,2.249C90.549,319.219,90.525,319.414,90.455,319.422z"/>
								</g>
							</g>
						</g>
					</g>
					<g>
						<g>
							<g>
								<g>
									<path style="fill:#40235E;" d="M90.33,322.764c-0.123-0.007-0.244-0.124-0.276-0.502c-0.024-0.371,0.026-1.033,0.51-1.948
										c0.504-0.904,1.032-1.307,1.356-1.488c0.335-0.179,0.499-0.142,0.572-0.042c0.078,0.106,0.051,0.258-0.139,0.534
										c-0.184,0.28-0.551,0.679-0.975,1.439c-0.407,0.769-0.541,1.294-0.676,1.601C90.573,322.666,90.461,322.771,90.33,322.764z
										"/>
								</g>
							</g>
						</g>
					</g>
					<g>
						<g>
							<g>
								<g>
									<path style="fill:#40235E;" d="M182.58,312.785c-0.004,0.064-0.21,0.107-0.744,0.116c-0.531-0.004-1.396-0.049-2.671-0.35
										c-1.267-0.301-2.968-0.854-4.953-2.087c-0.988-0.618-2.039-1.413-3.077-2.455c-1.043-1.037-2.019-2.363-2.908-3.905
										c-1.741-3.115-2.707-5.783-3.702-7.808c-0.97-2.036-1.866-3.471-2.626-4.472c-0.194-0.248-0.371-0.474-0.532-0.681
										c-0.176-0.194-0.335-0.37-0.479-0.529c-0.278-0.329-0.521-0.562-0.707-0.742c-0.365-0.369-0.487-0.547-0.449-0.598
										c0.038-0.052,0.231,0.027,0.679,0.321c0.228,0.143,0.514,0.344,0.839,0.65c0.166,0.15,0.349,0.317,0.552,0.501
										c0.184,0.202,0.386,0.424,0.606,0.666c0.859,0.988,1.853,2.454,2.884,4.51c1.052,2.04,2.054,4.714,3.738,7.721
										c1.686,3.013,3.781,4.898,5.642,6.104c1.865,1.212,3.466,1.805,4.664,2.174c1.205,0.369,2.029,0.51,2.537,0.623
										C182.385,312.642,182.584,312.721,182.58,312.785z"/>
								</g>
							</g>
						</g>
					</g>
					<g>
						<g>
							<g>
								<g>
									<path style="fill:#40235E;" d="M170.742,297.532c0.13-0.064,0.342,0.207,0.954,1.019c0.624,0.784,1.649,2.213,4.007,3.656
										c2.399,1.375,4.145,1.586,5.132,1.756c1.006,0.146,1.345,0.202,1.352,0.346c0.007,0.11-0.319,0.288-1.397,0.307
										c-1.054-0.008-2.975-0.132-5.558-1.613c-2.541-1.553-3.572-3.179-4.086-4.099
										C170.642,297.95,170.642,297.578,170.742,297.532z"/>
								</g>
							</g>
						</g>
					</g>
					<g>
						<g>
							<g>
								<g>
									<path style="fill:#40235E;" d="M174.636,295.781c0.065-0.113,0.213-0.154,0.538-0.083c0.327,0.066,0.829,0.258,1.672,0.456
										c0.846,0.185,1.381,0.229,1.705,0.311c0.324,0.077,0.44,0.177,0.45,0.307c0.01,0.125-0.087,0.255-0.438,0.347
										c-0.348,0.086-0.964,0.147-1.921-0.063c-0.955-0.225-1.483-0.546-1.76-0.774
										C174.605,296.049,174.574,295.889,174.636,295.781z"/>
								</g>
							</g>
						</g>
					</g>
					<g>
						<g>
							<g>
								<g>
									<path style="fill:#40235E;" d="M159.9,279.785c-0.085,0.117-0.426-0.044-1.434-0.542c-1.008-0.466-2.726-1.366-5.768-1.701
										c-3.05-0.253-4.908,0.302-5.987,0.567c-1.085,0.297-1.45,0.389-1.511,0.258c-0.049-0.099,0.214-0.402,1.297-0.877
										c1.072-0.439,3.043-1.14,6.29-0.87c3.239,0.355,5.04,1.421,6.008,2.056C159.767,279.349,159.967,279.698,159.9,279.785z"/>
								</g>
							</g>
						</g>
					</g>
					<g>
						<g>
							<g>
								<g>
									<path style="fill:#40235E;" d="M158.89,298.129c-0.139,0.038-0.315-0.328-0.814-1.447
										c-0.521-1.096-1.327-3.036-3.535-5.533c-2.267-2.444-4.118-3.438-5.157-4.064c-1.064-0.607-1.411-0.819-1.36-0.953
										c0.038-0.104,0.466-0.112,1.648,0.366c1.152,0.496,3.168,1.457,5.554,4.03c2.325,2.629,3.082,4.73,3.462,5.925
										C159.048,297.676,158.998,298.101,158.89,298.129z"/>
								</g>
							</g>
						</g>
					</g>
					<g>
						<g>
							<g>
								<g>
									<path style="fill:#40235E;" d="M179.571,319.252c0.1-0.235,0.852-0.141,3.742,1.086c2.89,1.227,3.48,1.702,3.38,1.938
										c-0.1,0.235-0.852,0.141-3.742-1.086C180.061,319.963,179.471,319.488,179.571,319.252z"/>
								</g>
							</g>
						</g>
					</g>
					<g>
						<g>
							<g>
								<g>
									<path style="fill:#40235E;" d="M120.043,281.28c-0.099-0.05-0.068-0.451,0.51-1.487c0.592-1.002,1.734-2.755,4.462-4.558
										c2.772-1.733,4.841-2.045,5.999-2.167c1.182-0.096,1.56,0.043,1.565,0.153c0.009,0.144-0.357,0.239-1.46,0.493
										c-1.084,0.279-2.992,0.668-5.603,2.3c-2.568,1.698-3.714,3.273-4.418,4.143
										C120.409,281.055,120.171,281.348,120.043,281.28z"/>
								</g>
							</g>
						</g>
					</g>
					<g>
						<g>
							<g>
								<g>
									<path style="fill:#40235E;" d="M112.062,299.126c-0.079-0.113,0.057-0.317,0.518-0.823
										c0.443-0.513,1.273-1.332,2.054-3.005c0.736-1.693,0.799-2.858,0.89-3.529c0.074-0.681,0.136-0.917,0.274-0.933
										c0.116-0.015,0.286,0.193,0.381,0.929c0.076,0.721,0.115,2.039-0.7,3.914c-0.864,1.853-1.877,2.697-2.468,3.118
										C112.396,299.212,112.127,299.223,112.062,299.126z"/>
								</g>
							</g>
						</g>
					</g>
					<g>
						<g>
							<g>
								<g>
									<path style="fill:#40235E;" d="M106.215,295.755c0.09-0.096,0.223-0.117,0.449-0.055c0.228,0.056,0.552,0.217,1.127,0.306
										c0.577,0.072,0.933,0.006,1.168,0.015c0.234,0.002,0.356,0.059,0.416,0.176c0.057,0.109,0.045,0.26-0.193,0.439
										c-0.232,0.168-0.721,0.387-1.519,0.287c-0.795-0.123-1.205-0.467-1.382-0.693
										C106.101,295.993,106.131,295.844,106.215,295.755z"/>
								</g>
							</g>
						</g>
					</g>
				</g>
				<g>
					<path style="fill:#2A1244;" d="M130.57,316.148c0,2.082-0.933,3.769-2.085,3.769s-2.084-1.688-2.084-3.769
						c0-2.082,0.933-3.769,2.084-3.769S130.57,314.066,130.57,316.148z"/>
					<ellipse style="fill:#2A1244;" cx="154.746" cy="316.148" rx="2.084" ry="3.769"/>
					<g>
						<path style="fill:#D86A82;" d="M140.992,326.386c0.042,0.081-0.188,0.425-1.112,0.301c-0.436-0.088-1.063-0.333-1.535-1.055
							c-0.5-0.707-0.489-2.05,0.467-2.958c0.236-0.225,0.507-0.397,0.792-0.507c0.288-0.117,0.596-0.143,0.772-0.166
							c0.196-0.024,0.298-0.072,0.31-0.089c0.019-0.003,0.053-0.076,0.062-0.23c0.031-0.677,0.068-1.219,0.113-1.607
							c0.09-0.785,0.208-1.034,0.336-1.033c0.128,0.001,0.241,0.251,0.319,1.038c0.038,0.398,0.069,0.911,0.085,1.628
							c-0.003,0.186-0.008,0.515-0.266,0.804c-0.259,0.279-0.585,0.342-0.816,0.384c-0.256,0.041-0.415,0.057-0.579,0.128
							c-0.168,0.068-0.336,0.174-0.488,0.319c-0.623,0.615-0.642,1.411-0.371,1.856c0.264,0.482,0.68,0.728,0.978,0.858
							C140.684,326.295,140.958,326.237,140.992,326.386z"/>
					</g>
					<path style="fill:#40235E;" d="M126.695,306.219c0.458,0.118,0.914,0.277,1.388,0.277c0.473,0,0.983-0.2,1.195-0.624
						c0.218-0.437,0.051-0.99-0.282-1.348c-0.333-0.358-0.798-0.56-1.256-0.729c-0.983-0.363-2.004-0.625-3.04-0.78
						c-0.745-0.111-1.511-0.166-2.246,0c-0.735,0.166-1.44,0.577-1.823,1.226c-0.729,1.232-0.091,2.398,1.263,2.164
						C123.555,306.116,125.002,305.783,126.695,306.219z"/>
					<path style="fill:#40235E;" d="M150.562,305.589c0.651,0.556,1.63,0.226,2.461,0.022c1.496-0.368,3.115-0.213,4.514,0.432
						c0.334,0.154,0.688,0.341,1.051,0.276c0.381-0.069,0.666-0.412,0.779-0.783c0.224-0.733-0.126-1.551-0.698-2.061
						c-0.572-0.509-1.329-0.76-2.078-0.922c-1.656-0.359-3.419-0.326-5.017,0.273C150.477,303.236,149.227,304.449,150.562,305.589z
						"/>
					<g>
						<path style="fill:#A5283A;" d="M147.441,335.706c-1.345,1.667-3.559,3.071-6.845,3.071c-2.678,0-4.476-0.988-5.642-2.309
							c-1.833-2.083-2.107-4.964-1.845-5.999c0.428-1.702,1.071-1.631,1.071-1.631c0.048,0.012,0.095,0.024,0.143,0.048
							c2.607,0.738,8.297,0.928,10.57,0.238c1.155-0.345,2.083-0.333,2.785-0.012c0.714,0.298,1.19,0.917,1.44,1.774
							C149.381,331.766,148.929,333.885,147.441,335.706z"/>
					</g>
					<g>
						<path style="fill:#FF859C;" d="M147.441,335.706c-1.345,1.667-3.559,3.071-6.845,3.071c-2.678,0-4.476-0.988-5.642-2.309
							c0.988-1.369,3.012-3.488,6.154-3.535C143.739,332.897,145.988,334.397,147.441,335.706z"/>
					</g>
					<path style="fill:#FFFFFF;" d="M147.679,329.112c-0.131,0.905-0.536,1.988-1.726,2.262c-2.119,0.5-10.368,0.214-11.356-0.345
						c-0.607-0.357-0.464-1.393-0.274-2.143c2.607,0.738,8.297,0.928,10.57,0.238C146.048,328.778,146.976,328.79,147.679,329.112z"
						/>
				</g>
			</g>
		</g>
	</g>
	<g>
		<circle style="fill:#1D2C3A;" cx="361.542" cy="352.291" r="91.905"/>
		<g>
			<defs>
				<circle id="SVGID_15_" cx="361.542" cy="352.291" r="91.905"/>
			</defs>
			<clipPath id="SVGID_00000099641856039931608780000014244574805755589545_">
				<use xlink:href="#SVGID_15_"  style="overflow:visible;"/>
			</clipPath>
			<g style="clip-path:url(#SVGID_00000099641856039931608780000014244574805755589545_);">
				<g>
					<path style="fill:#FBC996;" d="M346.005,464.033h42.721c0,0-4.762-62.693-5.357-73.207
						c-0.595-10.515-12.959-17.329-21.855-16.898s-16.351,8.367-17.683,14.914C342.5,395.388,346.005,464.033,346.005,464.033z"/>
					<path style="fill:#004235;" d="M407.676,381.415c4.262,1.078,6.246,4.252,9.618,9.411c3.373,5.158,19.641,67.652,17.062,69.835
						c-2.579,2.182-18.848,2.778-22.022,2.579c-3.174-0.198-13.094-68.248-11.309-74.398
						C402.812,382.691,407.676,381.415,407.676,381.415z"/>
					<path style="fill:#004235;" d="M316.114,385.469c-5.158,2.976-9.523,4.762-11.11,12.499
						c-1.587,7.737-8.332,70.232-8.332,70.232s12.499,3.174,19.443,1.786c6.944-1.389,8.344-2.66,8.344-2.66s0.209-56.064,0-65.389
						C324.248,392.611,316.114,385.469,316.114,385.469z"/>
					<path style="fill:#007A63;" d="M381.95,467.697l36.733-4.26c0,0-11.507-71.568-11.705-75.562
						c-0.198-3.994,1.984-6.772-0.397-7.962c-2.381-1.19-14.086-4.433-18.451-5.986c-4.365-1.553-6.434-2.545-6.434-2.545
						s-0.708,8.16-3.486,10.032c-2.777,1.872-1.85,5.892-2.413,6.461C375.235,388.444,381.95,467.697,381.95,467.697z"/>
					<g>
						<g>
							<g>
								<g>
									<path style="fill:#004235;" d="M409.209,386.498c-0.038,0.127-0.684,0.04-2.651-0.436
										c-1.969-0.466-5.255-1.349-10.65-2.506c-5.401-1.133-8.762-1.66-10.751-2.034c-1.991-0.364-2.616-0.547-2.599-0.678
										c0.015-0.122,0.668-0.169,2.691,0.03c2.02,0.209,5.418,0.637,10.851,1.777c5.428,1.164,8.707,2.153,10.638,2.782
										C408.667,386.072,409.245,386.38,409.209,386.498z"/>
								</g>
							</g>
						</g>
					</g>
					<path style="fill:#FCD9BB;" d="M345.817,376.144l-1.985,3.77c0,0,1.324,7.341,17.851,7.936
						c16.528,0.595,21.516-9.126,20.014-10.713c-1.502-1.587-5.899-2.182-5.899-2.182L345.817,376.144z"/>
					<path style="fill:#C56C44;" d="M378.215,377.338c0,0-8.535,6.737-17.665,7.333c-9.118,0.595-15.391-5.952-15.391-5.952
						s1.678-6.654,1.381-15.606c-0.071-2.404-0.297-4.964-0.726-7.618l21.688-1.571l8.297-0.595c0,0,0,0.072,0,0.19
						c0,0.869,0.012,4.512,0.012,8.297c0,1.797,0,3.631-0.012,5.202C375.763,372.375,378.215,377.338,378.215,377.338z"/>
					<path style="fill:#AF4331;" d="M375.81,361.816c-3.523,2.071-10.678,5.416-18.974,4.535c-5.523-0.607-8.594-1.964-10.297-3.238
						c-0.071-2.404-0.297-4.964-0.726-7.618l21.688-1.571l8.297-0.405C375.799,354.388,375.81,358.031,375.81,361.816z"/>
					<path style="fill:#007A63;" d="M346.005,373.927c0,0-28.304,10.549-29.892,11.541c-1.587,0.992,0,32.537,0,51.384
						c0,18.848-1.622,29.958-1.406,30.553c0.216,0.595,39.282-1.405,39.282-1.405l-3.95-78.124c0,0-3.561-3.77-4.222-6.461
						C345.155,378.723,346.005,373.927,346.005,373.927z"/>
					<g>
						<g>
							<g>
								<g>
									<path style="fill:#004235;" d="M349.639,408.354c0.007,0.255-3.016,0.543-16.057,0.888
										c-13.041,0.345-16.075,0.219-16.081-0.037c-0.007-0.255,3.016-0.543,16.057-0.888
										C346.598,407.971,349.632,408.098,349.639,408.354z"/>
								</g>
							</g>
						</g>
					</g>
					<g>
						<g>
							<g>
								<g>
									<path style="fill:#004235;" d="M350,412.403c0.011,0.122-0.77,0.32-3.27,0.585c-2.499,0.253-6.721,0.606-13.589,0.648
										c-6.868,0.012-11.092-0.308-13.593-0.541c-2.502-0.245-3.284-0.438-3.274-0.56c0.01-0.133,0.812-0.171,3.316-0.094
										c2.504,0.065,6.713,0.281,13.548,0.269c6.836-0.042,11.042-0.29,13.546-0.375C349.187,412.238,349.988,412.27,350,412.403z
										"/>
								</g>
							</g>
						</g>
					</g>
					<g>
						<g>
							<g>
								<g>
									<path style="fill:#004235;" d="M343.759,380.841c0.055,0.107-0.581,0.583-2.77,1.741c-2.193,1.142-5.931,3.01-12.256,5.414
										c-6.34,2.366-10.381,3.427-12.783,4.015c-2.409,0.574-3.201,0.635-3.23,0.518c-0.033-0.131,0.703-0.417,3.056-1.149
										c2.348-0.747,6.332-1.9,12.631-4.25c6.285-2.388,10.04-4.15,12.297-5.137C342.956,380.991,343.697,380.72,343.759,380.841z
										"/>
								</g>
							</g>
						</g>
					</g>
					<path style="fill:#23A38A;" d="M354.051,467.405c0,0-2.623-59.717-2.623-67.652c0-7.936,0-15.673,0-15.673v-7.539
						c0,0-2.396-4.126-3.626-7.52c-1.229-3.394-1.258-5.879-1.258-5.879s-3.846-1.297-4.838,0
						c-0.992,1.297-2.288,10.027-2.288,10.027s-3.28,5.581,0,8.246c3.28,2.665,8.384,5.244,8.384,5.244l3.03,79.159L354.051,467.405
						z"/>
					<path style="fill:#23A38A;" d="M375.812,360.508c-0.21,7.524,0.982,10.716-1.479,13.138c-2.243,2.208-1.161,6.703-1.129,9.64
						c0.032,2.937,5.962,84.913,5.962,84.913l4.401-0.794l-6.547-80.945c0,0,7.462-5.952,8.79-6.944
						c1.328-0.992-0.854-6.112-1.648-10.496c-0.793-4.384-1.053-6.138-2.213-7.741C380.79,359.677,375.812,360.508,375.812,360.508z
						"/>
					<g>
						<g>
							<g>
								<g>
									<path style="fill:#004235;" d="M409.937,406.766c0.016,0.122-0.673,0.341-2.897,0.685
										c-2.224,0.333-5.984,0.82-12.122,1.147c-6.139,0.301-9.93,0.199-12.176,0.094c-2.247-0.115-2.955-0.263-2.951-0.386
										c0.004-0.133,0.718-0.216,2.96-0.268c2.241-0.063,6.011-0.065,12.12-0.364c6.107-0.325,9.858-0.706,12.094-0.872
										C409.201,406.625,409.92,406.635,409.937,406.766z"/>
								</g>
							</g>
						</g>
					</g>
					<g>
						<g>
							<g>
								<g>
									<path style="fill:#004235;" d="M411.533,414.12c-0.012,0.131-0.74,0.169-3.007,0.064
										c-2.268-0.097-6.076-0.359-12.266-0.564c-6.191-0.184-10.008-0.162-12.277-0.208c-2.27-0.038-2.993-0.121-2.997-0.253
										c-0.004-0.124,0.712-0.272,2.985-0.402c2.272-0.121,6.104-0.248,12.319-0.063c6.214,0.206,10.031,0.573,12.291,0.837
										C410.84,413.804,411.545,413.996,411.533,414.12z"/>
								</g>
							</g>
						</g>
					</g>
				</g>
				<g>
					<path style="fill:#562F1B;" d="M338.244,344.575c-0.511,2.017-3.576,3.677-6.131,2.655c-2.554-1.022-1.277-3.193-2.044-4.215
						c-0.766-1.022,1.277-0.894,1.916,0.511c0.639,1.405,3.828,0.575,3.319-1.181c-0.509-1.756-2.61-1.756-4.114-3.928
						c-1.504-2.171,1.05-3.704,1.05-3.704s-0.529-0.255-2.819-2.171c-2.29-1.916-1.268-4.319-3.184-4.842s1.15,2.62-0.639,4.114
						c-1.788,1.494-3.449-0.089-4.598,0c-1.15,0.089-2.044-1.188-0.894-1.443c1.15-0.255,2.554,1.277,3.576-0.383
						c1.022-1.66,0.255-2.226,0-4.242c-0.255-2.016,2.427-2.159,2.427-2.159s-2.171-2.795-3.321-2.539
						c-1.149,0.255,0.255,2.241-1.277,3.356c-1.533,1.115-1.277-0.671-3.193-0.161c-1.916,0.509-3.193,1.345-3.576,0.161
						c-0.383-1.184,2.427-1.951,3.704-2.462c1.277-0.511,1.916-1.15,0.255-3.448c-1.66-2.299-1.788-3.321-0.383-3.832
						c1.405-0.511,3.321-2.682,3.321-2.682s-3.576,0.128-5.492-2.555c-1.916-2.682,1.66-2.938,1.405-5.747
						c-0.255-2.81,0.128-4.342,0.894-3.832c0.766,0.511,1.149,0.894,1.149,3.065c0,2.171,2.427,1.533,2.427,1.533
						s-0.766-0.639,1.022-2.299c1.788-1.66,3.157-1.022,3.431-3.321c0.273-2.299-0.238-2.81,1.295-4.342
						c1.533-1.533,4.087-1.916,4.087-1.916s-1.806-1.022-2.436-2.682c-0.63-1.66,1.158-1.28,3.841-4.344
						c2.682-3.064,3.754-2.17,6.156-3.192c2.402-1.022,4.062-1.15,4.062-1.15s-3.448-3.065-2.682-5.492
						c0.766-2.427,0.639-2.427,3.448-1.022c2.81,1.405,5.492,0.383,11.239-0.128c5.747-0.511,7.791,0.511,10.09,3.065
						c2.299,2.554,4.215,4.853,4.215,4.853s6.386-4.47,10.345-3.448c3.959,1.022,4.726,3.065,7.025,5.109
						c2.299,2.044,3.321,2.044,5.875,2.299c2.554,0.255,2.044,1.405,1.022,3.448c-1.022,2.044-3.193,3.065-3.193,3.065
						s3.576,0.572,5.747,2.968c2.171,2.396,3.193,4.823,3.193,8.271c0,3.448-0.255,7.408,1.916,8.685
						c2.171,1.277,5.109,0.38,4.342-2.237c-0.766-2.617,1.788-2.747,2.171,0c0.383,2.747-0.511,5.174-2.427,5.94
						c-1.916,0.766-2.81,0.658-2.81,0.658s4.342,2.249,2.682,6.352c-1.66,4.102-4.47,2.77-4.215,2.159
						c0.255-0.611,2.81-1.633,1.15-4.443c-1.66-2.81-3.959,0.128-3.959,0.128s0.383,1.533-0.511,5.747
						c-0.894,4.215,2.171,2.427,2.81,5.236c0.639,2.81-3.065,0.547-6.003,1.295c-2.938,0.748-4.607,2.819-3.262,7.02
						c1.346,4.201,5.816,5.351,2.751,5.99c-3.065,0.639-1.4-1.622-6.003-1.788c-4.602-0.166-5.492,4.215-9.707,6.641
						C374.516,354,338.244,344.575,338.244,344.575z"/>
					<path style="fill:#C56C44;" d="M391.69,327.7c0,3.25-2.631,5.88-5.88,5.88c-0.071,0-0.131,0-0.202-0.012
						c-0.75,14.237-6.059,27.712-23.093,27.712c-17.248,0-20.308-8.047-23.76-15.451c-1.298-2.809-2.202-7.511-2.821-12.285
						c-0.202,0.024-0.417,0.036-0.631,0.036c-3.25,0-5.88-2.631-5.88-5.88c0-3.107,2.404-5.642,5.452-5.857
						c-0.083-1.44-0.143-2.595-0.167-3.333c1.571-0.702,3.654-1.702,5.452-2.059c3.19-0.643,2.809-2.178,2.809-5.107
						c0-2.94-0.25-2.69,1.155-3.702c1.405-1.024,1.786-3.321,1.786-3.321s1.143,0.381,3.321,0.5c2.167,0.131,2.94-1.274,2.94-1.274
						s2.035,1.274,4.976,1.786c2.94,0.512,9.702-1.786,9.702-1.786s1.797,1.155,5.75,1.405c3.964,0.262,7.535,2.297,9.106,7.904
						c1.428,5.119,1.178,6.773,4.059,7.499c0.012,0.476,0.012,0.964,0.024,1.464c0.012,0,0.012,0,0.024,0
						C389.059,321.82,391.69,324.451,391.69,327.7z"/>
					<path style="fill:#9B4223;" d="M337.218,327.673c0,1.696-1.375,3.07-3.07,3.07s-3.07-1.374-3.07-3.07
						c0-1.695,1.374-3.07,3.07-3.07S337.218,325.978,337.218,327.673z"/>
					<circle style="fill:#9B4223;" cx="387.031" cy="327.701" r="3.033"/>
					<path style="fill:#562F1B;" d="M385.809,336.247c-0.452-2.559,0-18.141,0-18.141l-2.095-0.643c0,0-0.512,16.106-1.155,16.737
						c-0.631,0.643-0.631,2.178-2.547,3.964c-1.917,1.785-3.071,8.297-4.607,7.666c-1.524-0.643-4.845-6.261-7.535-6.523
						c-2.678-0.25-12.261,0-14.939,0.131c-2.678,0.131-4.726,6.511-6.642,6.392c-1.916-0.131-5.618-2.047-6.868-6.261
						c-1.25-4.214-2.345-22.105-2.345-22.105s0.94-0.369-0.488-1.012c-1.44-0.643-2.809,1.012-2.809,1.012s1.405,8.821,1.524,12.142
						c0.131,3.321,0.131,7.666,1.024,11.13c0.893,3.452,4.345,14.796,8.809,17.355c4.476,2.547,14.058,8.559,27.212,2.297
						C385.5,354.126,386.262,338.806,385.809,336.247z M369.704,354.471c-1.167,1.428-14.618,1.095-15.725,0.548
						c-1.107-0.548-4.666-6.118-4.761-7.523c-0.036-0.488,2.226-4.607,4.761-4.833c2.024-0.178,12.13-0.321,14.118,0
						c1.988,0.333,4.761,4.19,5.083,5.297C373.501,349.067,370.87,353.031,369.704,354.471z"/>
					<g>
						<g>
							<g>
								<g>
									<path style="fill:#351307;" d="M356.865,280.617c0.018-0.111,0.435-0.21,1.672,0.073c0.614,0.15,1.428,0.422,2.428,0.949
										c0.988,0.538,2.172,1.345,3.328,2.659c1.142,1.327,1.778,2.611,2.175,3.663c0.384,1.063,0.54,1.906,0.605,2.535
										c0.11,1.264-0.045,1.663-0.158,1.666c-0.142,0.006-0.222-0.387-0.487-1.556c-0.313-1.128-0.746-3.204-2.833-5.701
										c-2.185-2.411-4.182-3.127-5.256-3.592C357.217,280.89,356.839,280.757,356.865,280.617z"/>
								</g>
							</g>
						</g>
					</g>
					<g>
						<g>
							<g>
								<g>
									<path style="fill:#351307;" d="M356.245,285.48c0.05-0.117,0.338-0.123,1.141,0.134c0.785,0.284,2.165,0.714,4.105,2.077
										c1.917,1.426,2.63,2.839,2.907,3.653c0.264,0.842,0.172,1.144,0.06,1.17c-0.135,0.035-0.273-0.208-0.658-0.904
										c-0.402-0.675-1.096-1.859-2.857-3.173c-1.796-1.265-3.108-1.793-3.819-2.223
										C356.395,285.806,356.194,285.598,356.245,285.48z"/>
								</g>
							</g>
						</g>
					</g>
					<g>
						<g>
							<g>
								<g>
									<path style="fill:#351307;" d="M344.401,299.972c-0.095-0.056,0.028-0.603,0.981-2.012c0.486-0.695,1.206-1.594,2.339-2.61
										c1.142-0.987,2.735-2.124,5.02-2.793c2.31-0.629,4.292-0.415,5.767-0.011c1.484,0.431,2.501,1.054,3.172,1.598
										c1.322,1.136,1.458,1.734,1.386,1.781c-0.127,0.107-0.456-0.336-1.772-1.252c-0.669-0.438-1.63-0.949-3.004-1.302
										c-1.367-0.328-3.19-0.497-5.297,0.077c-2.106,0.616-3.608,1.652-4.719,2.551c-1.102,0.926-1.841,1.741-2.375,2.362
										C344.85,299.619,344.525,300.048,344.401,299.972z"/>
								</g>
							</g>
						</g>
					</g>
					<g>
						<g>
							<g>
								<g>
									<path style="fill:#351307;" d="M336.096,287.788c0.001-0.13,0.383-0.234,1.569-0.315c0.592-0.044,1.385-0.082,2.42-0.176
										c1.03-0.107,2.315-0.257,3.801-0.752c1.469-0.513,2.528-1.233,3.275-1.896c0.743-0.674,1.192-1.293,1.487-1.775
										c0.566-0.98,0.678-1.357,0.827-1.32c0.097,0.016,0.225,0.449-0.245,1.621c-0.485,1.106-1.802,3.081-5.045,4.246
										c-1.608,0.536-2.968,0.663-4.038,0.727c-1.075,0.05-1.882,0.02-2.481-0.02
										C336.469,288.041,336.095,287.914,336.096,287.788z"/>
								</g>
							</g>
						</g>
					</g>
					<g>
						<g>
							<g>
								<g>
									<path style="fill:#351307;" d="M334.418,308.488c-0.122,0.014-0.313-0.448-0.557-1.978
										c-0.113-0.766-0.249-1.806-0.223-3.207c0.048-1.384,0.232-3.207,1.337-5.152c1.146-1.95,2.819-2.898,4.085-3.443
										c1.302-0.544,2.331-0.769,3.091-0.922c1.527-0.286,2.027-0.249,2.053-0.131c0.03,0.131-0.435,0.324-1.894,0.766
										c-0.724,0.23-1.705,0.516-2.903,1.066c-1.175,0.557-2.628,1.42-3.634,3.132c-0.985,1.729-1.195,3.413-1.283,4.719
										c-0.071,1.326-0.006,2.346,0.023,3.107C334.588,307.972,334.55,308.474,334.418,308.488z"/>
								</g>
							</g>
						</g>
					</g>
					<g>
						<g>
							<g>
								<g>
									<path style="fill:#351307;" d="M330.812,317c-0.004-0.147,0.413-0.203,1.629-0.496c0.605-0.158,1.408-0.408,2.391-0.901
										c0.968-0.507,2.135-1.274,3.205-2.575c1.049-1.318,1.555-2.619,1.848-3.672c0.276-1.065,0.353-1.902,0.381-2.527
										c0.033-1.251,0-1.67,0.145-1.697c0.104-0.023,0.37,0.349,0.51,1.684c0.056,0.665,0.046,1.576-0.207,2.745
										c-0.271,1.156-0.798,2.595-1.956,4.05c-1.18,1.437-2.478,2.253-3.551,2.76c-1.09,0.492-1.979,0.693-2.641,0.777
										C331.231,317.289,330.811,317.107,330.812,317z"/>
								</g>
							</g>
						</g>
					</g>
					<g>
						<g>
							<g>
								<g>
									<path style="fill:#351307;" d="M324.354,315.218c0.019-0.132,0.181-0.211,0.626-0.271c0.441-0.071,1.185-0.098,2.31-0.481
										c1.115-0.41,1.71-0.858,2.097-1.08c0.383-0.233,0.559-0.274,0.657-0.183c0.09,0.082,0.086,0.281-0.222,0.672
										c-0.31,0.377-0.939,0.991-2.223,1.464c-1.295,0.441-2.171,0.36-2.648,0.262
										C324.464,315.491,324.336,315.338,324.354,315.218z"/>
								</g>
							</g>
						</g>
					</g>
					<g>
						<g>
							<g>
								<g>
									<path style="fill:#351307;" d="M321.7,308.814c-0.01-0.13,0.159-0.25,0.688-0.397c0.527-0.156,1.424-0.318,2.821-0.779
										c0.685-0.236,1.276-0.46,1.651-0.647c0.389-0.202,0.632-0.401,0.767-0.559c0.267-0.311,0.272-0.515,0.417-0.538
										c0.061-0.012,0.131,0.02,0.196,0.152c0.056,0.127,0.096,0.391-0.048,0.715c-0.137,0.327-0.442,0.669-0.903,0.966
										c-0.484,0.298-1.038,0.527-1.786,0.788c-1.489,0.491-2.466,0.559-3.036,0.551
										C321.894,309.051,321.709,308.939,321.7,308.814z"/>
								</g>
							</g>
						</g>
					</g>
					<g>
						<g>
							<g>
								<g>
									<path style="fill:#351307;" d="M382.25,285.038c-0.065,0.121-0.352,0.058-1.165-0.178c-0.806-0.193-2.217-0.658-4.469-0.3
										c-2.237,0.447-3.399,1.372-4.087,1.833c-0.681,0.504-0.927,0.662-1.031,0.571c-0.089-0.076-0.02-0.388,0.599-1.063
										c0.626-0.624,1.855-1.752,4.356-2.252c2.519-0.399,4.063,0.232,4.867,0.6C382.134,284.666,382.307,284.936,382.25,285.038z
										"/>
								</g>
							</g>
						</g>
					</g>
					<g>
						<g>
							<g>
								<g>
									<path style="fill:#351307;" d="M394.497,314.113c-0.142,0.006-0.224-0.706-0.53-2.899c-0.167-1.093-0.4-2.561-0.953-4.428
										c-0.57-1.848-1.465-4.144-3.346-6.449c-1.899-2.289-4.04-3.519-5.85-4.095c-1.827-0.578-3.308-0.6-4.379-0.515
										c-2.154,0.234-2.797,0.629-2.862,0.462c-0.042-0.059,0.502-0.685,2.784-1.112c1.133-0.177,2.729-0.226,4.709,0.349
										c1.964,0.572,4.3,1.89,6.311,4.32c1.995,2.444,2.907,4.873,3.453,6.803c0.528,1.951,0.697,3.468,0.784,4.592
										C394.761,313.396,394.61,314.109,394.497,314.113z"/>
								</g>
							</g>
						</g>
					</g>
					<g>
						<g>
							<g>
								<g>
									<path style="fill:#351307;" d="M396.171,321.277c0.027,0.046-0.064,0.199-0.446,0.374
										c-0.373,0.158-1.101,0.323-2.079-0.033c-0.48-0.178-1.019-0.488-1.503-1.015c-0.475-0.516-0.876-1.224-1.149-2.063
										c-0.278-0.839-0.422-1.814-0.518-2.864c-0.107-1.049-0.169-2.195-0.537-3.349c-0.786-2.32-2.294-3.806-3.51-4.847
										c-1.254-1.041-2.326-1.695-3.112-2.201c-1.591-0.99-2.08-1.357-2.015-1.474c0.059-0.106,0.646,0.05,2.34,0.906
										c0.84,0.441,1.974,1.05,3.326,2.108c1.31,1.066,2.966,2.625,3.852,5.225c0.414,1.309,0.463,2.515,0.559,3.55
										c0.082,1.041,0.201,1.934,0.429,2.693c0.438,1.535,1.307,2.383,2.09,2.729c0.784,0.366,1.379,0.326,1.73,0.29
										C395.985,321.254,396.137,321.212,396.171,321.277z"/>
								</g>
							</g>
						</g>
					</g>
					<g>
						<g>
							<g>
								<g>
									<path style="fill:#351307;" d="M397.257,324.943c-0.015,0.124-0.151,0.231-0.559,0.245
										c-0.404,0.009-1.095-0.063-2.118-0.481c-1.018-0.432-1.555-0.873-1.833-1.165c-0.277-0.299-0.297-0.472-0.219-0.57
										c0.081-0.103,0.245-0.112,0.596,0.034c0.354,0.142,0.89,0.454,1.812,0.846c0.928,0.379,1.527,0.539,1.877,0.691
										C397.164,324.69,397.273,324.813,397.257,324.943z"/>
								</g>
							</g>
						</g>
					</g>
					<g>
						<g>
							<g>
								<g>
									<path style="fill:#351307;" d="M387.587,341.866c-0.075,0.096-0.253,0.122-0.606-0.104
										c-0.339-0.228-0.897-0.723-1.327-1.789c-0.402-1.077-0.324-1.819-0.227-2.216c0.108-0.405,0.257-0.505,0.377-0.485
										c0.132,0.021,0.213,0.159,0.277,0.518c0.072,0.356,0.103,0.954,0.437,1.848c0.357,0.885,0.737,1.347,0.924,1.659
										C387.637,341.604,387.67,341.762,387.587,341.866z"/>
								</g>
							</g>
						</g>
					</g>
					<g>
						<g>
							<g>
								<g>
									<path style="fill:#351307;" d="M334.395,345.02c-0.051-0.148,0.187-0.227,0.322-0.749c0.063-0.275,0.094-0.679,0.007-1.255
										c-0.078-0.597-0.182-1.339-0.393-2.241c-0.428-1.802-0.884-2.858-1.095-3.512c-0.227-0.649-0.244-0.893-0.128-0.957
										c0.107-0.06,0.328,0.071,0.717,0.672c0.372,0.604,0.954,1.682,1.408,3.589c0.222,0.952,0.306,1.742,0.341,2.375
										c0.048,0.653-0.054,1.202-0.249,1.574c-0.196,0.382-0.488,0.552-0.66,0.582C334.486,345.13,334.412,345.076,334.395,345.02
										z"/>
								</g>
							</g>
						</g>
					</g>
					<g>
						<g>
							<g>
								<g>
									<path style="fill:#351307;" d="M345.585,355.381c-0.096,0.073-0.337-0.025-0.797-0.583
										c-0.444-0.56-1.157-1.592-1.697-3.504c-0.504-1.922-0.415-3.173-0.316-3.881c0.113-0.715,0.271-0.921,0.391-0.907
										c0.134,0.015,0.207,0.247,0.263,0.93c0.07,0.679,0.087,1.83,0.555,3.614c0.502,1.775,1.072,2.775,1.356,3.396
										C345.637,355.063,345.693,355.301,345.585,355.381z"/>
								</g>
							</g>
						</g>
					</g>
					<g>
						<g>
							<g>
								<g>
									<path style="fill:#351307;" d="M347.768,353.311c-0.168,0.163-0.562,0.163-1.153-0.796
										c-0.537-0.99-0.341-1.332-0.116-1.396c0.262-0.082,0.463,0.1,0.917,0.932C347.912,352.859,347.97,353.125,347.768,353.311z
										"/>
								</g>
							</g>
						</g>
					</g>
					<g>
						<g>
							<g>
								<g>
									<path style="fill:#351307;" d="M353.19,358.156c-0.132,0.219-0.401,0.299-1.103-0.122
										c-0.702-0.421-0.759-0.697-0.627-0.916c0.132-0.219,0.401-0.299,1.103,0.122
										C353.265,357.661,353.322,357.937,353.19,358.156z"/>
								</g>
							</g>
						</g>
					</g>
					<g>
						<g>
							<g>
								<g>
									<path style="fill:#351307;" d="M378.292,353.601c-0.109-0.093,0.077-0.429,0.679-1.412c0.573-0.988,1.653-2.64,2.442-5.674
										c0.718-3.051,0.534-5.016,0.488-6.158c-0.074-1.151-0.081-1.535,0.058-1.566c0.109-0.026,0.344,0.305,0.591,1.481
										c0.217,1.163,0.52,3.245-0.238,6.465c-0.832,3.202-2.072,4.902-2.806,5.829
										C378.738,353.492,378.376,353.675,378.292,353.601z"/>
								</g>
							</g>
						</g>
					</g>
					<g>
						<g>
							<g>
								<g>
									<path style="fill:#351307;" d="M374.524,353.189c-0.096-0.089-0.101-0.241,0.031-0.541
										c0.126-0.302,0.408-0.748,0.708-1.541c0.284-0.799,0.357-1.321,0.456-1.633c0.093-0.314,0.195-0.426,0.326-0.432
										c0.124-0.006,0.254,0.095,0.328,0.454c0.066,0.354,0.093,0.99-0.241,1.93c-0.353,0.932-0.784,1.401-1.064,1.628
										C374.78,353.28,374.615,353.273,374.524,353.189z"/>
								</g>
							</g>
						</g>
					</g>
					<g>
						<g>
							<g>
								<g>
									<path style="fill:#351307;" d="M369.232,359.322c-0.125-0.249,0.082-0.487,1.019-1.216
										c0.898-0.776,1.171-0.934,1.392-0.762c0.185,0.135,0.228,0.581-0.804,1.478
										C369.757,359.659,369.328,359.53,369.232,359.322z"/>
								</g>
							</g>
						</g>
					</g>
				</g>
				<g>
					<ellipse style="fill:#3A1C0F;" cx="345.817" cy="326.456" rx="1.985" ry="3.419"/>
					<ellipse style="fill:#3A1C0F;" cx="373.813" cy="326.456" rx="1.985" ry="3.419"/>
					<path style="fill:#351307;" d="M360.798,338.165c0.014,0.219-0.344,0.601-1.638,0.464c-0.621-0.101-1.554-0.339-2.42-1.295
						c-0.425-0.461-0.788-1.207-0.85-2.015c-0.063-0.805,0.094-1.783,0.843-2.622c0.359-0.409,0.909-0.702,1.273-0.82
						c0.371-0.13,0.6-0.21,0.706-0.283c0.213-0.128,0.37-0.437,0.437-0.805c0.133-0.723-0.044-1.454-0.064-2.054
						c-0.077-1.229,0.297-1.654,0.529-1.598c0.271,0.048,0.384,0.357,0.754,1.341c0.092,0.254,0.206,0.561,0.315,0.962
						c0.108,0.395,0.211,0.934,0.16,1.554c-0.053,0.599-0.26,1.468-1.09,2.085c-0.41,0.29-0.82,0.409-1.099,0.521
						c-0.291,0.111-0.396,0.187-0.556,0.347c-0.294,0.311-0.422,0.819-0.399,1.245c0.029,0.445,0.148,0.768,0.365,1.066
						c0.425,0.592,1.011,0.899,1.443,1.108C360.405,337.762,360.794,337.885,360.798,338.165z"/>
					<path style="fill:#562F1B;" d="M341.096,319.184c-0.253-0.016-0.597-0.346-0.336-1.295c0.14-0.458,0.464-1.042,1.094-1.584
						c0.624-0.534,1.56-1.053,2.83-1.181c1.266-0.113,2.257,0.184,2.974,0.539c0.721,0.363,1.178,0.809,1.445,1.188
						c0.526,0.791,0.346,1.205,0.112,1.319c-0.267,0.142-0.561,0.031-1.121-0.253c-0.547-0.245-1.542-0.838-3.207-0.728
						c-1.643,0.21-2.414,1.017-2.834,1.394C341.624,319.001,341.399,319.219,341.096,319.184z"/>
					<path style="fill:#562F1B;" d="M378.006,316.857c-0.234,0.21-0.568,0.181-1.225-0.051c-0.656-0.203-1.724-0.713-3.583-0.772
						c-1.861,0.008-2.953,0.479-3.621,0.657c-0.67,0.207-1.006,0.216-1.229-0.005c-0.204-0.197-0.249-0.624,0.392-1.291
						c0.636-0.622,2.018-1.533,4.489-1.542c2.472,0.077,3.833,1.044,4.444,1.695C378.29,316.244,378.22,316.672,378.006,316.857z"/>
					<path style="fill:#7A1F2C;" d="M368.347,345.341c-0.036,0.94-0.667,2.619-2.012,4c-1.19,1.214-2.952,2.202-5.333,2.202
						c-2.964,0-4.797-0.762-5.928-1.762c-0.809-0.702-1.274-1.512-1.559-2.25c-0.583-1.5-0.298-2.369,0.536-3.69
						c0.167-0.25,0.345-0.536,0.547-0.833c0.798-1.19,6.547-0.536,9.285-0.524c1.571,0,2.833,0.357,3.607,1.012
						C368.061,343.961,368.371,344.591,368.347,345.341z"/>
					<path style="fill:#FC868F;" d="M366.335,349.341c-1.19,1.214-2.952,2.202-5.333,2.202c-2.964,0-4.797-0.762-5.928-1.762
						c0,0,1.012-3.345,5.702-3.5C363.633,346.198,365.383,347.948,366.335,349.341z"/>
					<path style="fill:#FFFFFF;" d="M367.49,343.496c-0.131,0.5-0.333,1.012-0.643,1.297c-0.69,0.655-9.213,0.655-11.309,0
						c-0.786-0.25-1.238-0.607-1.488-0.952c0.167-0.25,0.345-0.536,0.547-0.833c0.798-1.19,6.547-0.536,9.285-0.524
						C365.454,342.484,366.716,342.842,367.49,343.496z"/>
				</g>
			</g>
		</g>
	</g>
</g>
</svg>
